<?xml version="1.0" encoding="utf-8" standalone="no"?>
<!DOCTYPE svg PUBLIC "-//W3C//DTD SVG 1.1//EN"
  "http://www.w3.org/Graphics/SVG/1.1/DTD/svg11.dtd">
<!-- Created with matplotlib (https://matplotlib.org/) -->
<svg height="2016pt" version="1.1" viewBox="0 0 1080 2016" width="1080pt" xmlns="http://www.w3.org/2000/svg" xmlns:xlink="http://www.w3.org/1999/xlink">
 <defs>
  <style type="text/css">
*{stroke-linecap:butt;stroke-linejoin:round;}
  </style>
 </defs>
 <g id="figure_1">
  <g id="patch_1">
   <path d="M 0 2016 
L 1080 2016 
L 1080 0 
L 0 0 
z
" style="fill:#ffffff;"/>
  </g>
  <g id="axes_1">
   <g id="patch_2">
    <path d="M 31.21 484.76 
L 533.52 484.76 
L 533.52 27.006875 
L 31.21 27.006875 
z
" style="fill:#eaeaf2;"/>
   </g>
   <g id="matplotlib.axis_1">
    <g id="xtick_1">
     <g id="text_1">
      <!-- 0 -->
      <defs>
       <path d="M 4.15625 35.296875 
Q 4.15625 48 6.765625 55.734375 
Q 9.375 63.484375 14.515625 67.671875 
Q 19.671875 71.875 27.484375 71.875 
Q 33.25 71.875 37.59375 69.546875 
Q 41.9375 67.234375 44.765625 62.859375 
Q 47.609375 58.5 49.21875 52.21875 
Q 50.828125 45.953125 50.828125 35.296875 
Q 50.828125 22.703125 48.234375 14.96875 
Q 45.65625 7.234375 40.5 3 
Q 35.359375 -1.21875 27.484375 -1.21875 
Q 17.140625 -1.21875 11.234375 6.203125 
Q 4.15625 15.140625 4.15625 35.296875 
z
M 13.1875 35.296875 
Q 13.1875 17.671875 17.3125 11.828125 
Q 21.4375 6 27.484375 6 
Q 33.546875 6 37.671875 11.859375 
Q 41.796875 17.71875 41.796875 35.296875 
Q 41.796875 52.984375 37.671875 58.78125 
Q 33.546875 64.59375 27.390625 64.59375 
Q 21.34375 64.59375 17.71875 59.46875 
Q 13.1875 52.9375 13.1875 35.296875 
z
" id="ArialMT-48"/>
      </defs>
      <g style="fill:#262626;" transform="translate(154.007031 498.917812)scale(0.1 -0.1)">
       <use xlink:href="#ArialMT-48"/>
      </g>
     </g>
    </g>
    <g id="xtick_2">
     <g id="text_2">
      <!-- 1 -->
      <defs>
       <path d="M 37.25 0 
L 28.46875 0 
L 28.46875 56 
Q 25.296875 52.984375 20.140625 49.953125 
Q 14.984375 46.921875 10.890625 45.40625 
L 10.890625 53.90625 
Q 18.265625 57.375 23.78125 62.296875 
Q 29.296875 67.234375 31.59375 71.875 
L 37.25 71.875 
z
" id="ArialMT-49"/>
      </defs>
      <g style="fill:#262626;" transform="translate(405.162031 498.917812)scale(0.1 -0.1)">
       <use xlink:href="#ArialMT-49"/>
      </g>
     </g>
    </g>
   </g>
   <g id="matplotlib.axis_2">
    <g id="ytick_1">
     <g id="line2d_1">
      <path clip-path="url(#p8ad9d9e6c0)" d="M 31.21 463.95304 
L 533.52 463.95304 
" style="fill:none;stroke:#ffffff;stroke-linecap:round;"/>
     </g>
     <g id="text_3">
      <!-- 0 -->
      <g style="fill:#262626;" transform="translate(18.649062 467.531946)scale(0.1 -0.1)">
       <use xlink:href="#ArialMT-48"/>
      </g>
     </g>
    </g>
    <g id="ytick_2">
     <g id="line2d_2">
      <path clip-path="url(#p8ad9d9e6c0)" d="M 31.21 411.935639 
L 533.52 411.935639 
" style="fill:none;stroke:#ffffff;stroke-linecap:round;"/>
     </g>
     <g id="text_4">
      <!-- 1 -->
      <g style="fill:#262626;" transform="translate(18.649062 415.514545)scale(0.1 -0.1)">
       <use xlink:href="#ArialMT-49"/>
      </g>
     </g>
    </g>
    <g id="ytick_3">
     <g id="line2d_3">
      <path clip-path="url(#p8ad9d9e6c0)" d="M 31.21 359.918239 
L 533.52 359.918239 
" style="fill:none;stroke:#ffffff;stroke-linecap:round;"/>
     </g>
     <g id="text_5">
      <!-- 2 -->
      <defs>
       <path d="M 50.34375 8.453125 
L 50.34375 0 
L 3.03125 0 
Q 2.9375 3.171875 4.046875 6.109375 
Q 5.859375 10.9375 9.828125 15.625 
Q 13.8125 20.3125 21.34375 26.46875 
Q 33.015625 36.03125 37.109375 41.625 
Q 41.21875 47.21875 41.21875 52.203125 
Q 41.21875 57.421875 37.46875 61 
Q 33.734375 64.59375 27.734375 64.59375 
Q 21.390625 64.59375 17.578125 60.78125 
Q 13.765625 56.984375 13.71875 50.25 
L 4.6875 51.171875 
Q 5.609375 61.28125 11.65625 66.578125 
Q 17.71875 71.875 27.9375 71.875 
Q 38.234375 71.875 44.234375 66.15625 
Q 50.25 60.453125 50.25 52 
Q 50.25 47.703125 48.484375 43.546875 
Q 46.734375 39.40625 42.65625 34.8125 
Q 38.578125 30.21875 29.109375 22.21875 
Q 21.1875 15.578125 18.9375 13.203125 
Q 16.703125 10.84375 15.234375 8.453125 
z
" id="ArialMT-50"/>
      </defs>
      <g style="fill:#262626;" transform="translate(18.649062 363.497145)scale(0.1 -0.1)">
       <use xlink:href="#ArialMT-50"/>
      </g>
     </g>
    </g>
    <g id="ytick_4">
     <g id="line2d_4">
      <path clip-path="url(#p8ad9d9e6c0)" d="M 31.21 307.900838 
L 533.52 307.900838 
" style="fill:none;stroke:#ffffff;stroke-linecap:round;"/>
     </g>
     <g id="text_6">
      <!-- 3 -->
      <defs>
       <path d="M 4.203125 18.890625 
L 12.984375 20.0625 
Q 14.5 12.59375 18.140625 9.296875 
Q 21.78125 6 27 6 
Q 33.203125 6 37.46875 10.296875 
Q 41.75 14.59375 41.75 20.953125 
Q 41.75 27 37.796875 30.921875 
Q 33.84375 34.859375 27.734375 34.859375 
Q 25.25 34.859375 21.53125 33.890625 
L 22.515625 41.609375 
Q 23.390625 41.5 23.921875 41.5 
Q 29.546875 41.5 34.03125 44.421875 
Q 38.53125 47.359375 38.53125 53.46875 
Q 38.53125 58.296875 35.25 61.46875 
Q 31.984375 64.65625 26.8125 64.65625 
Q 21.6875 64.65625 18.265625 61.421875 
Q 14.84375 58.203125 13.875 51.765625 
L 5.078125 53.328125 
Q 6.6875 62.15625 12.390625 67.015625 
Q 18.109375 71.875 26.609375 71.875 
Q 32.46875 71.875 37.390625 69.359375 
Q 42.328125 66.84375 44.9375 62.5 
Q 47.5625 58.15625 47.5625 53.265625 
Q 47.5625 48.640625 45.0625 44.828125 
Q 42.578125 41.015625 37.703125 38.765625 
Q 44.046875 37.3125 47.5625 32.6875 
Q 51.078125 28.078125 51.078125 21.140625 
Q 51.078125 11.765625 44.234375 5.25 
Q 37.40625 -1.265625 26.953125 -1.265625 
Q 17.53125 -1.265625 11.296875 4.34375 
Q 5.078125 9.96875 4.203125 18.890625 
z
" id="ArialMT-51"/>
      </defs>
      <g style="fill:#262626;" transform="translate(18.649062 311.479744)scale(0.1 -0.1)">
       <use xlink:href="#ArialMT-51"/>
      </g>
     </g>
    </g>
    <g id="ytick_5">
     <g id="line2d_5">
      <path clip-path="url(#p8ad9d9e6c0)" d="M 31.21 255.883437 
L 533.52 255.883437 
" style="fill:none;stroke:#ffffff;stroke-linecap:round;"/>
     </g>
     <g id="text_7">
      <!-- 4 -->
      <defs>
       <path d="M 32.328125 0 
L 32.328125 17.140625 
L 1.265625 17.140625 
L 1.265625 25.203125 
L 33.9375 71.578125 
L 41.109375 71.578125 
L 41.109375 25.203125 
L 50.78125 25.203125 
L 50.78125 17.140625 
L 41.109375 17.140625 
L 41.109375 0 
z
M 32.328125 25.203125 
L 32.328125 57.46875 
L 9.90625 25.203125 
z
" id="ArialMT-52"/>
      </defs>
      <g style="fill:#262626;" transform="translate(18.649062 259.462344)scale(0.1 -0.1)">
       <use xlink:href="#ArialMT-52"/>
      </g>
     </g>
    </g>
    <g id="ytick_6">
     <g id="line2d_6">
      <path clip-path="url(#p8ad9d9e6c0)" d="M 31.21 203.866037 
L 533.52 203.866037 
" style="fill:none;stroke:#ffffff;stroke-linecap:round;"/>
     </g>
     <g id="text_8">
      <!-- 5 -->
      <defs>
       <path d="M 4.15625 18.75 
L 13.375 19.53125 
Q 14.40625 12.796875 18.140625 9.390625 
Q 21.875 6 27.15625 6 
Q 33.5 6 37.890625 10.78125 
Q 42.28125 15.578125 42.28125 23.484375 
Q 42.28125 31 38.0625 35.34375 
Q 33.84375 39.703125 27 39.703125 
Q 22.75 39.703125 19.328125 37.765625 
Q 15.921875 35.84375 13.96875 32.765625 
L 5.71875 33.84375 
L 12.640625 70.609375 
L 48.25 70.609375 
L 48.25 62.203125 
L 19.671875 62.203125 
L 15.828125 42.96875 
Q 22.265625 47.46875 29.34375 47.46875 
Q 38.71875 47.46875 45.15625 40.96875 
Q 51.609375 34.46875 51.609375 24.265625 
Q 51.609375 14.546875 45.953125 7.46875 
Q 39.0625 -1.21875 27.15625 -1.21875 
Q 17.390625 -1.21875 11.203125 4.25 
Q 5.03125 9.71875 4.15625 18.75 
z
" id="ArialMT-53"/>
      </defs>
      <g style="fill:#262626;" transform="translate(18.649062 207.444943)scale(0.1 -0.1)">
       <use xlink:href="#ArialMT-53"/>
      </g>
     </g>
    </g>
    <g id="ytick_7">
     <g id="line2d_7">
      <path clip-path="url(#p8ad9d9e6c0)" d="M 31.21 151.848636 
L 533.52 151.848636 
" style="fill:none;stroke:#ffffff;stroke-linecap:round;"/>
     </g>
     <g id="text_9">
      <!-- 6 -->
      <defs>
       <path d="M 49.75 54.046875 
L 41.015625 53.375 
Q 39.84375 58.546875 37.703125 60.890625 
Q 34.125 64.65625 28.90625 64.65625 
Q 24.703125 64.65625 21.53125 62.3125 
Q 17.390625 59.28125 14.984375 53.46875 
Q 12.59375 47.65625 12.5 36.921875 
Q 15.671875 41.75 20.265625 44.09375 
Q 24.859375 46.4375 29.890625 46.4375 
Q 38.671875 46.4375 44.84375 39.96875 
Q 51.03125 33.5 51.03125 23.25 
Q 51.03125 16.5 48.125 10.71875 
Q 45.21875 4.9375 40.140625 1.859375 
Q 35.0625 -1.21875 28.609375 -1.21875 
Q 17.625 -1.21875 10.6875 6.859375 
Q 3.765625 14.9375 3.765625 33.5 
Q 3.765625 54.25 11.421875 63.671875 
Q 18.109375 71.875 29.4375 71.875 
Q 37.890625 71.875 43.28125 67.140625 
Q 48.6875 62.40625 49.75 54.046875 
z
M 13.875 23.1875 
Q 13.875 18.65625 15.796875 14.5 
Q 17.71875 10.359375 21.1875 8.171875 
Q 24.65625 6 28.46875 6 
Q 34.03125 6 38.03125 10.484375 
Q 42.046875 14.984375 42.046875 22.703125 
Q 42.046875 30.125 38.078125 34.390625 
Q 34.125 38.671875 28.125 38.671875 
Q 22.171875 38.671875 18.015625 34.390625 
Q 13.875 30.125 13.875 23.1875 
z
" id="ArialMT-54"/>
      </defs>
      <g style="fill:#262626;" transform="translate(18.649062 155.427543)scale(0.1 -0.1)">
       <use xlink:href="#ArialMT-54"/>
      </g>
     </g>
    </g>
    <g id="ytick_8">
     <g id="line2d_8">
      <path clip-path="url(#p8ad9d9e6c0)" d="M 31.21 99.831236 
L 533.52 99.831236 
" style="fill:none;stroke:#ffffff;stroke-linecap:round;"/>
     </g>
     <g id="text_10">
      <!-- 7 -->
      <defs>
       <path d="M 4.734375 62.203125 
L 4.734375 70.65625 
L 51.078125 70.65625 
L 51.078125 63.8125 
Q 44.234375 56.546875 37.515625 44.484375 
Q 30.8125 32.421875 27.15625 19.671875 
Q 24.515625 10.6875 23.78125 0 
L 14.75 0 
Q 14.890625 8.453125 18.0625 20.40625 
Q 21.234375 32.375 27.171875 43.484375 
Q 33.109375 54.59375 39.796875 62.203125 
z
" id="ArialMT-55"/>
      </defs>
      <g style="fill:#262626;" transform="translate(18.649062 103.410142)scale(0.1 -0.1)">
       <use xlink:href="#ArialMT-55"/>
      </g>
     </g>
    </g>
    <g id="ytick_9">
     <g id="line2d_9">
      <path clip-path="url(#p8ad9d9e6c0)" d="M 31.21 47.813835 
L 533.52 47.813835 
" style="fill:none;stroke:#ffffff;stroke-linecap:round;"/>
     </g>
     <g id="text_11">
      <!-- 8 -->
      <defs>
       <path d="M 17.671875 38.8125 
Q 12.203125 40.828125 9.5625 44.53125 
Q 6.9375 48.25 6.9375 53.421875 
Q 6.9375 61.234375 12.546875 66.546875 
Q 18.171875 71.875 27.484375 71.875 
Q 36.859375 71.875 42.578125 66.421875 
Q 48.296875 60.984375 48.296875 53.171875 
Q 48.296875 48.1875 45.671875 44.5 
Q 43.0625 40.828125 37.75 38.8125 
Q 44.34375 36.671875 47.78125 31.875 
Q 51.21875 27.09375 51.21875 20.453125 
Q 51.21875 11.28125 44.71875 5.03125 
Q 38.234375 -1.21875 27.640625 -1.21875 
Q 17.046875 -1.21875 10.546875 5.046875 
Q 4.046875 11.328125 4.046875 20.703125 
Q 4.046875 27.6875 7.59375 32.390625 
Q 11.140625 37.109375 17.671875 38.8125 
z
M 15.921875 53.71875 
Q 15.921875 48.640625 19.1875 45.40625 
Q 22.46875 42.1875 27.6875 42.1875 
Q 32.765625 42.1875 36.015625 45.375 
Q 39.265625 48.578125 39.265625 53.21875 
Q 39.265625 58.0625 35.90625 61.359375 
Q 32.5625 64.65625 27.59375 64.65625 
Q 22.5625 64.65625 19.234375 61.421875 
Q 15.921875 58.203125 15.921875 53.71875 
z
M 13.09375 20.65625 
Q 13.09375 16.890625 14.875 13.375 
Q 16.65625 9.859375 20.171875 7.921875 
Q 23.6875 6 27.734375 6 
Q 34.03125 6 38.125 10.046875 
Q 42.234375 14.109375 42.234375 20.359375 
Q 42.234375 26.703125 38.015625 30.859375 
Q 33.796875 35.015625 27.4375 35.015625 
Q 21.234375 35.015625 17.15625 30.90625 
Q 13.09375 26.8125 13.09375 20.65625 
z
" id="ArialMT-56"/>
      </defs>
      <g style="fill:#262626;" transform="translate(18.649062 51.392741)scale(0.1 -0.1)">
       <use xlink:href="#ArialMT-56"/>
      </g>
     </g>
    </g>
   </g>
   <g id="patch_3">
    <path clip-path="url(#p8ad9d9e6c0)" d="M 56.3255 255.883437 
L 257.2495 255.883437 
L 257.2495 151.848636 
L 56.3255 151.848636 
L 56.3255 255.883437 
z
" style="fill:#657897;stroke:#4c4c4c;stroke-linejoin:miter;stroke-width:3;"/>
   </g>
   <g id="patch_4">
    <path clip-path="url(#p8ad9d9e6c0)" d="M 307.4805 463.95304 
L 508.4045 463.95304 
L 508.4045 255.883437 
L 307.4805 255.883437 
L 307.4805 463.95304 
z
" style="fill:#6a9373;stroke:#4c4c4c;stroke-linejoin:miter;stroke-width:3;"/>
   </g>
   <g id="line2d_10">
    <path clip-path="url(#p8ad9d9e6c0)" d="M 156.7875 255.883437 
L 156.7875 411.935639 
" style="fill:none;stroke:#4c4c4c;stroke-linecap:round;stroke-width:3;"/>
   </g>
   <g id="line2d_11">
    <path clip-path="url(#p8ad9d9e6c0)" d="M 156.7875 151.848636 
L 156.7875 99.831236 
" style="fill:none;stroke:#4c4c4c;stroke-linecap:round;stroke-width:3;"/>
   </g>
   <g id="line2d_12">
    <path clip-path="url(#p8ad9d9e6c0)" d="M 106.5565 411.935639 
L 207.0185 411.935639 
" style="fill:none;stroke:#4c4c4c;stroke-linecap:round;stroke-width:3;"/>
   </g>
   <g id="line2d_13">
    <path clip-path="url(#p8ad9d9e6c0)" d="M 106.5565 99.831236 
L 207.0185 99.831236 
" style="fill:none;stroke:#4c4c4c;stroke-linecap:round;stroke-width:3;"/>
   </g>
   <g id="line2d_14">
    <path clip-path="url(#p8ad9d9e6c0)" d="M 407.9425 463.95304 
L 407.9425 463.95304 
" style="fill:none;stroke:#4c4c4c;stroke-linecap:round;stroke-width:3;"/>
   </g>
   <g id="line2d_15">
    <path clip-path="url(#p8ad9d9e6c0)" d="M 407.9425 255.883437 
L 407.9425 47.813835 
" style="fill:none;stroke:#4c4c4c;stroke-linecap:round;stroke-width:3;"/>
   </g>
   <g id="line2d_16">
    <path clip-path="url(#p8ad9d9e6c0)" d="M 357.7115 463.95304 
L 458.1735 463.95304 
" style="fill:none;stroke:#4c4c4c;stroke-linecap:round;stroke-width:3;"/>
   </g>
   <g id="line2d_17">
    <path clip-path="url(#p8ad9d9e6c0)" d="M 357.7115 47.813835 
L 458.1735 47.813835 
" style="fill:none;stroke:#4c4c4c;stroke-linecap:round;stroke-width:3;"/>
   </g>
   <g id="line2d_18">
    <path clip-path="url(#p8ad9d9e6c0)" d="M 56.3255 203.866037 
L 257.2495 203.866037 
" style="fill:none;stroke:#4c4c4c;stroke-linecap:round;stroke-width:3;"/>
   </g>
   <g id="line2d_19">
    <path clip-path="url(#p8ad9d9e6c0)" d="M 307.4805 255.883437 
L 508.4045 255.883437 
" style="fill:none;stroke:#4c4c4c;stroke-linecap:round;stroke-width:3;"/>
   </g>
   <g id="patch_5">
    <path d="M 31.21 484.76 
L 31.21 27.006875 
" style="fill:none;"/>
   </g>
   <g id="patch_6">
    <path d="M 533.52 484.76 
L 533.52 27.006875 
" style="fill:none;"/>
   </g>
   <g id="patch_7">
    <path d="M 31.21 484.76 
L 533.52 484.76 
" style="fill:none;"/>
   </g>
   <g id="patch_8">
    <path d="M 31.21 27.006875 
L 533.52 27.006875 
" style="fill:none;"/>
   </g>
   <g id="text_12">
    <!-- sex_ca for each target -->
    <defs>
     <path d="M 3.078125 15.484375 
L 11.765625 16.84375 
Q 12.5 11.625 15.84375 8.84375 
Q 19.1875 6.0625 25.203125 6.0625 
Q 31.25 6.0625 34.171875 8.515625 
Q 37.109375 10.984375 37.109375 14.3125 
Q 37.109375 17.28125 34.515625 19 
Q 32.71875 20.171875 25.53125 21.96875 
Q 15.875 24.421875 12.140625 26.203125 
Q 8.40625 27.984375 6.46875 31.125 
Q 4.546875 34.28125 4.546875 38.09375 
Q 4.546875 41.546875 6.125 44.5 
Q 7.71875 47.46875 10.453125 49.421875 
Q 12.5 50.921875 16.03125 51.96875 
Q 19.578125 53.03125 23.640625 53.03125 
Q 29.734375 53.03125 34.34375 51.265625 
Q 38.96875 49.515625 41.15625 46.5 
Q 43.359375 43.5 44.1875 38.484375 
L 35.59375 37.3125 
Q 35.015625 41.3125 32.203125 43.546875 
Q 29.390625 45.796875 24.265625 45.796875 
Q 18.21875 45.796875 15.625 43.796875 
Q 13.03125 41.796875 13.03125 39.109375 
Q 13.03125 37.40625 14.109375 36.03125 
Q 15.1875 34.625 17.484375 33.6875 
Q 18.796875 33.203125 25.25 31.453125 
Q 34.578125 28.953125 38.25 27.359375 
Q 41.9375 25.78125 44.03125 22.75 
Q 46.140625 19.734375 46.140625 15.234375 
Q 46.140625 10.84375 43.578125 6.953125 
Q 41.015625 3.078125 36.171875 0.953125 
Q 31.34375 -1.171875 25.25 -1.171875 
Q 15.140625 -1.171875 9.84375 3.03125 
Q 4.546875 7.234375 3.078125 15.484375 
z
" id="ArialMT-115"/>
     <path d="M 42.09375 16.703125 
L 51.171875 15.578125 
Q 49.03125 7.625 43.21875 3.21875 
Q 37.40625 -1.171875 28.375 -1.171875 
Q 17 -1.171875 10.328125 5.828125 
Q 3.65625 12.84375 3.65625 25.484375 
Q 3.65625 38.578125 10.390625 45.796875 
Q 17.140625 53.03125 27.875 53.03125 
Q 38.28125 53.03125 44.875 45.953125 
Q 51.46875 38.875 51.46875 26.03125 
Q 51.46875 25.25 51.421875 23.6875 
L 12.75 23.6875 
Q 13.234375 15.140625 17.578125 10.59375 
Q 21.921875 6.0625 28.421875 6.0625 
Q 33.25 6.0625 36.671875 8.59375 
Q 40.09375 11.140625 42.09375 16.703125 
z
M 13.234375 30.90625 
L 42.1875 30.90625 
Q 41.609375 37.453125 38.875 40.71875 
Q 34.671875 45.796875 27.984375 45.796875 
Q 21.921875 45.796875 17.796875 41.75 
Q 13.671875 37.703125 13.234375 30.90625 
z
" id="ArialMT-101"/>
     <path d="M 0.734375 0 
L 19.671875 26.953125 
L 2.15625 51.859375 
L 13.140625 51.859375 
L 21.09375 39.703125 
Q 23.34375 36.234375 24.703125 33.890625 
Q 26.859375 37.109375 28.65625 39.59375 
L 37.40625 51.859375 
L 47.90625 51.859375 
L 29.984375 27.4375 
L 49.265625 0 
L 38.484375 0 
L 27.828125 16.109375 
L 25 20.453125 
L 11.375 0 
z
" id="ArialMT-120"/>
     <path d="M -1.515625 -19.875 
L -1.515625 -13.53125 
L 56.734375 -13.53125 
L 56.734375 -19.875 
z
" id="ArialMT-95"/>
     <path d="M 40.4375 19 
L 49.078125 17.875 
Q 47.65625 8.9375 41.8125 3.875 
Q 35.984375 -1.171875 27.484375 -1.171875 
Q 16.84375 -1.171875 10.375 5.78125 
Q 3.90625 12.75 3.90625 25.734375 
Q 3.90625 34.125 6.6875 40.421875 
Q 9.46875 46.734375 15.15625 49.875 
Q 20.84375 53.03125 27.546875 53.03125 
Q 35.984375 53.03125 41.359375 48.75 
Q 46.734375 44.484375 48.25 36.625 
L 39.703125 35.296875 
Q 38.484375 40.53125 35.375 43.15625 
Q 32.28125 45.796875 27.875 45.796875 
Q 21.234375 45.796875 17.078125 41.03125 
Q 12.9375 36.28125 12.9375 25.984375 
Q 12.9375 15.53125 16.9375 10.796875 
Q 20.953125 6.0625 27.390625 6.0625 
Q 32.5625 6.0625 36.03125 9.234375 
Q 39.5 12.40625 40.4375 19 
z
" id="ArialMT-99"/>
     <path d="M 40.4375 6.390625 
Q 35.546875 2.25 31.03125 0.53125 
Q 26.515625 -1.171875 21.34375 -1.171875 
Q 12.796875 -1.171875 8.203125 3 
Q 3.609375 7.171875 3.609375 13.671875 
Q 3.609375 17.484375 5.34375 20.625 
Q 7.078125 23.78125 9.890625 25.6875 
Q 12.703125 27.59375 16.21875 28.5625 
Q 18.796875 29.25 24.03125 29.890625 
Q 34.671875 31.15625 39.703125 32.90625 
Q 39.75 34.71875 39.75 35.203125 
Q 39.75 40.578125 37.25 42.78125 
Q 33.890625 45.75 27.25 45.75 
Q 21.046875 45.75 18.09375 43.578125 
Q 15.140625 41.40625 13.71875 35.890625 
L 5.125 37.0625 
Q 6.296875 42.578125 8.984375 45.96875 
Q 11.671875 49.359375 16.75 51.1875 
Q 21.828125 53.03125 28.515625 53.03125 
Q 35.15625 53.03125 39.296875 51.46875 
Q 43.453125 49.90625 45.40625 47.53125 
Q 47.359375 45.171875 48.140625 41.546875 
Q 48.578125 39.3125 48.578125 33.453125 
L 48.578125 21.734375 
Q 48.578125 9.46875 49.140625 6.21875 
Q 49.703125 2.984375 51.375 0 
L 42.1875 0 
Q 40.828125 2.734375 40.4375 6.390625 
z
M 39.703125 26.03125 
Q 34.90625 24.078125 25.34375 22.703125 
Q 19.921875 21.921875 17.671875 20.9375 
Q 15.4375 19.96875 14.203125 18.09375 
Q 12.984375 16.21875 12.984375 13.921875 
Q 12.984375 10.40625 15.640625 8.0625 
Q 18.3125 5.71875 23.4375 5.71875 
Q 28.515625 5.71875 32.46875 7.9375 
Q 36.421875 10.15625 38.28125 14.015625 
Q 39.703125 17 39.703125 22.796875 
z
" id="ArialMT-97"/>
     <path id="ArialMT-32"/>
     <path d="M 8.6875 0 
L 8.6875 45.015625 
L 0.921875 45.015625 
L 0.921875 51.859375 
L 8.6875 51.859375 
L 8.6875 57.375 
Q 8.6875 62.59375 9.625 65.140625 
Q 10.890625 68.5625 14.078125 70.671875 
Q 17.28125 72.796875 23.046875 72.796875 
Q 26.765625 72.796875 31.25 71.921875 
L 29.9375 64.265625 
Q 27.203125 64.75 24.75 64.75 
Q 20.75 64.75 19.09375 63.03125 
Q 17.4375 61.328125 17.4375 56.640625 
L 17.4375 51.859375 
L 27.546875 51.859375 
L 27.546875 45.015625 
L 17.4375 45.015625 
L 17.4375 0 
z
" id="ArialMT-102"/>
     <path d="M 3.328125 25.921875 
Q 3.328125 40.328125 11.328125 47.265625 
Q 18.015625 53.03125 27.640625 53.03125 
Q 38.328125 53.03125 45.109375 46.015625 
Q 51.90625 39.015625 51.90625 26.65625 
Q 51.90625 16.65625 48.90625 10.90625 
Q 45.90625 5.171875 40.15625 2 
Q 34.421875 -1.171875 27.640625 -1.171875 
Q 16.75 -1.171875 10.03125 5.8125 
Q 3.328125 12.796875 3.328125 25.921875 
z
M 12.359375 25.921875 
Q 12.359375 15.96875 16.703125 11.015625 
Q 21.046875 6.0625 27.640625 6.0625 
Q 34.1875 6.0625 38.53125 11.03125 
Q 42.875 16.015625 42.875 26.21875 
Q 42.875 35.84375 38.5 40.796875 
Q 34.125 45.75 27.640625 45.75 
Q 21.046875 45.75 16.703125 40.8125 
Q 12.359375 35.890625 12.359375 25.921875 
z
" id="ArialMT-111"/>
     <path d="M 6.5 0 
L 6.5 51.859375 
L 14.40625 51.859375 
L 14.40625 44 
Q 17.4375 49.515625 20 51.265625 
Q 22.5625 53.03125 25.640625 53.03125 
Q 30.078125 53.03125 34.671875 50.203125 
L 31.640625 42.046875 
Q 28.421875 43.953125 25.203125 43.953125 
Q 22.3125 43.953125 20.015625 42.21875 
Q 17.71875 40.484375 16.75 37.40625 
Q 15.28125 32.71875 15.28125 27.15625 
L 15.28125 0 
z
" id="ArialMT-114"/>
     <path d="M 6.59375 0 
L 6.59375 71.578125 
L 15.375 71.578125 
L 15.375 45.90625 
Q 21.53125 53.03125 30.90625 53.03125 
Q 36.671875 53.03125 40.921875 50.75 
Q 45.171875 48.484375 47 44.484375 
Q 48.828125 40.484375 48.828125 32.859375 
L 48.828125 0 
L 40.046875 0 
L 40.046875 32.859375 
Q 40.046875 39.453125 37.1875 42.453125 
Q 34.328125 45.453125 29.109375 45.453125 
Q 25.203125 45.453125 21.75 43.421875 
Q 18.3125 41.40625 16.84375 37.9375 
Q 15.375 34.46875 15.375 28.375 
L 15.375 0 
z
" id="ArialMT-104"/>
     <path d="M 25.78125 7.859375 
L 27.046875 0.09375 
Q 23.34375 -0.6875 20.40625 -0.6875 
Q 15.625 -0.6875 12.984375 0.828125 
Q 10.359375 2.34375 9.28125 4.8125 
Q 8.203125 7.28125 8.203125 15.1875 
L 8.203125 45.015625 
L 1.765625 45.015625 
L 1.765625 51.859375 
L 8.203125 51.859375 
L 8.203125 64.703125 
L 16.9375 69.96875 
L 16.9375 51.859375 
L 25.78125 51.859375 
L 25.78125 45.015625 
L 16.9375 45.015625 
L 16.9375 14.703125 
Q 16.9375 10.9375 17.40625 9.859375 
Q 17.875 8.796875 18.921875 8.15625 
Q 19.96875 7.515625 21.921875 7.515625 
Q 23.390625 7.515625 25.78125 7.859375 
z
" id="ArialMT-116"/>
     <path d="M 4.984375 -4.296875 
L 13.53125 -5.5625 
Q 14.0625 -9.515625 16.5 -11.328125 
Q 19.78125 -13.765625 25.4375 -13.765625 
Q 31.546875 -13.765625 34.859375 -11.328125 
Q 38.1875 -8.890625 39.359375 -4.5 
Q 40.046875 -1.8125 39.984375 6.78125 
Q 34.234375 0 25.640625 0 
Q 14.9375 0 9.078125 7.71875 
Q 3.21875 15.4375 3.21875 26.21875 
Q 3.21875 33.640625 5.90625 39.90625 
Q 8.59375 46.1875 13.6875 49.609375 
Q 18.796875 53.03125 25.6875 53.03125 
Q 34.859375 53.03125 40.828125 45.609375 
L 40.828125 51.859375 
L 48.921875 51.859375 
L 48.921875 7.03125 
Q 48.921875 -5.078125 46.453125 -10.125 
Q 44 -15.1875 38.640625 -18.109375 
Q 33.296875 -21.046875 25.484375 -21.046875 
Q 16.21875 -21.046875 10.5 -16.875 
Q 4.78125 -12.703125 4.984375 -4.296875 
z
M 12.25 26.859375 
Q 12.25 16.65625 16.296875 11.96875 
Q 20.359375 7.28125 26.46875 7.28125 
Q 32.515625 7.28125 36.609375 11.9375 
Q 40.71875 16.609375 40.71875 26.5625 
Q 40.71875 36.078125 36.5 40.90625 
Q 32.28125 45.75 26.3125 45.75 
Q 20.453125 45.75 16.34375 40.984375 
Q 12.25 36.234375 12.25 26.859375 
z
" id="ArialMT-103"/>
    </defs>
    <g style="fill:#262626;" transform="translate(223.0025 21.006875)scale(0.12 -0.12)">
     <use xlink:href="#ArialMT-115"/>
     <use x="50" xlink:href="#ArialMT-101"/>
     <use x="105.615234" xlink:href="#ArialMT-120"/>
     <use x="155.615234" xlink:href="#ArialMT-95"/>
     <use x="211.230469" xlink:href="#ArialMT-99"/>
     <use x="261.230469" xlink:href="#ArialMT-97"/>
     <use x="316.845703" xlink:href="#ArialMT-32"/>
     <use x="344.628906" xlink:href="#ArialMT-102"/>
     <use x="372.412109" xlink:href="#ArialMT-111"/>
     <use x="428.027344" xlink:href="#ArialMT-114"/>
     <use x="461.328125" xlink:href="#ArialMT-32"/>
     <use x="489.111328" xlink:href="#ArialMT-101"/>
     <use x="544.726562" xlink:href="#ArialMT-97"/>
     <use x="600.341797" xlink:href="#ArialMT-99"/>
     <use x="650.341797" xlink:href="#ArialMT-104"/>
     <use x="705.957031" xlink:href="#ArialMT-32"/>
     <use x="733.740234" xlink:href="#ArialMT-116"/>
     <use x="761.523438" xlink:href="#ArialMT-97"/>
     <use x="817.138672" xlink:href="#ArialMT-114"/>
     <use x="850.439453" xlink:href="#ArialMT-103"/>
     <use x="906.054688" xlink:href="#ArialMT-101"/>
     <use x="961.669922" xlink:href="#ArialMT-116"/>
    </g>
   </g>
  </g>
  <g id="axes_2">
   <g id="patch_9">
    <path d="M 564.73 484.76 
L 1067.04 484.76 
L 1067.04 27.006875 
L 564.73 27.006875 
z
" style="fill:#eaeaf2;"/>
   </g>
   <g id="matplotlib.axis_3">
    <g id="xtick_3">
     <g id="text_13">
      <!-- 0 -->
      <g style="fill:#262626;" transform="translate(687.527031 498.917812)scale(0.1 -0.1)">
       <use xlink:href="#ArialMT-48"/>
      </g>
     </g>
    </g>
    <g id="xtick_4">
     <g id="text_14">
      <!-- 1 -->
      <g style="fill:#262626;" transform="translate(938.682031 498.917812)scale(0.1 -0.1)">
       <use xlink:href="#ArialMT-49"/>
      </g>
     </g>
    </g>
   </g>
   <g id="matplotlib.axis_4">
    <g id="ytick_10">
     <g id="line2d_20">
      <path clip-path="url(#ped6fe3b12a)" d="M 564.73 463.95304 
L 1067.04 463.95304 
" style="fill:none;stroke:#ffffff;stroke-linecap:round;"/>
     </g>
     <g id="text_15">
      <!-- 0 -->
      <g style="fill:#262626;" transform="translate(552.169062 467.531946)scale(0.1 -0.1)">
       <use xlink:href="#ArialMT-48"/>
      </g>
     </g>
    </g>
    <g id="ytick_11">
     <g id="line2d_21">
      <path clip-path="url(#ped6fe3b12a)" d="M 564.73 411.935639 
L 1067.04 411.935639 
" style="fill:none;stroke:#ffffff;stroke-linecap:round;"/>
     </g>
     <g id="text_16">
      <!-- 1 -->
      <g style="fill:#262626;" transform="translate(552.169062 415.514545)scale(0.1 -0.1)">
       <use xlink:href="#ArialMT-49"/>
      </g>
     </g>
    </g>
    <g id="ytick_12">
     <g id="line2d_22">
      <path clip-path="url(#ped6fe3b12a)" d="M 564.73 359.918239 
L 1067.04 359.918239 
" style="fill:none;stroke:#ffffff;stroke-linecap:round;"/>
     </g>
     <g id="text_17">
      <!-- 2 -->
      <g style="fill:#262626;" transform="translate(552.169062 363.497145)scale(0.1 -0.1)">
       <use xlink:href="#ArialMT-50"/>
      </g>
     </g>
    </g>
    <g id="ytick_13">
     <g id="line2d_23">
      <path clip-path="url(#ped6fe3b12a)" d="M 564.73 307.900838 
L 1067.04 307.900838 
" style="fill:none;stroke:#ffffff;stroke-linecap:round;"/>
     </g>
     <g id="text_18">
      <!-- 3 -->
      <g style="fill:#262626;" transform="translate(552.169062 311.479744)scale(0.1 -0.1)">
       <use xlink:href="#ArialMT-51"/>
      </g>
     </g>
    </g>
    <g id="ytick_14">
     <g id="line2d_24">
      <path clip-path="url(#ped6fe3b12a)" d="M 564.73 255.883437 
L 1067.04 255.883437 
" style="fill:none;stroke:#ffffff;stroke-linecap:round;"/>
     </g>
     <g id="text_19">
      <!-- 4 -->
      <g style="fill:#262626;" transform="translate(552.169062 259.462344)scale(0.1 -0.1)">
       <use xlink:href="#ArialMT-52"/>
      </g>
     </g>
    </g>
    <g id="ytick_15">
     <g id="line2d_25">
      <path clip-path="url(#ped6fe3b12a)" d="M 564.73 203.866037 
L 1067.04 203.866037 
" style="fill:none;stroke:#ffffff;stroke-linecap:round;"/>
     </g>
     <g id="text_20">
      <!-- 5 -->
      <g style="fill:#262626;" transform="translate(552.169062 207.444943)scale(0.1 -0.1)">
       <use xlink:href="#ArialMT-53"/>
      </g>
     </g>
    </g>
    <g id="ytick_16">
     <g id="line2d_26">
      <path clip-path="url(#ped6fe3b12a)" d="M 564.73 151.848636 
L 1067.04 151.848636 
" style="fill:none;stroke:#ffffff;stroke-linecap:round;"/>
     </g>
     <g id="text_21">
      <!-- 6 -->
      <g style="fill:#262626;" transform="translate(552.169062 155.427543)scale(0.1 -0.1)">
       <use xlink:href="#ArialMT-54"/>
      </g>
     </g>
    </g>
    <g id="ytick_17">
     <g id="line2d_27">
      <path clip-path="url(#ped6fe3b12a)" d="M 564.73 99.831236 
L 1067.04 99.831236 
" style="fill:none;stroke:#ffffff;stroke-linecap:round;"/>
     </g>
     <g id="text_22">
      <!-- 7 -->
      <g style="fill:#262626;" transform="translate(552.169062 103.410142)scale(0.1 -0.1)">
       <use xlink:href="#ArialMT-55"/>
      </g>
     </g>
    </g>
    <g id="ytick_18">
     <g id="line2d_28">
      <path clip-path="url(#ped6fe3b12a)" d="M 564.73 47.813835 
L 1067.04 47.813835 
" style="fill:none;stroke:#ffffff;stroke-linecap:round;"/>
     </g>
     <g id="text_23">
      <!-- 8 -->
      <g style="fill:#262626;" transform="translate(552.169062 51.392741)scale(0.1 -0.1)">
       <use xlink:href="#ArialMT-56"/>
      </g>
     </g>
    </g>
   </g>
   <g id="patch_10">
    <path clip-path="url(#ped6fe3b12a)" d="M 589.8455 359.918239 
L 790.7695 359.918239 
L 790.7695 151.848636 
L 589.8455 151.848636 
L 589.8455 359.918239 
z
" style="fill:#657897;stroke:#4c4c4c;stroke-linejoin:miter;stroke-width:3;"/>
   </g>
   <g id="patch_11">
    <path clip-path="url(#ped6fe3b12a)" d="M 841.0005 463.95304 
L 1041.9245 463.95304 
L 1041.9245 385.926939 
L 841.0005 385.926939 
L 841.0005 463.95304 
z
" style="fill:#6a9373;stroke:#4c4c4c;stroke-linejoin:miter;stroke-width:3;"/>
   </g>
   <g id="line2d_29">
    <path clip-path="url(#ped6fe3b12a)" d="M 690.3075 359.918239 
L 690.3075 463.95304 
" style="fill:none;stroke:#4c4c4c;stroke-linecap:round;stroke-width:3;"/>
   </g>
   <g id="line2d_30">
    <path clip-path="url(#ped6fe3b12a)" d="M 690.3075 151.848636 
L 690.3075 47.813835 
" style="fill:none;stroke:#4c4c4c;stroke-linecap:round;stroke-width:3;"/>
   </g>
   <g id="line2d_31">
    <path clip-path="url(#ped6fe3b12a)" d="M 640.0765 463.95304 
L 740.5385 463.95304 
" style="fill:none;stroke:#4c4c4c;stroke-linecap:round;stroke-width:3;"/>
   </g>
   <g id="line2d_32">
    <path clip-path="url(#ped6fe3b12a)" d="M 640.0765 47.813835 
L 740.5385 47.813835 
" style="fill:none;stroke:#4c4c4c;stroke-linecap:round;stroke-width:3;"/>
   </g>
   <g id="line2d_33">
    <path clip-path="url(#ped6fe3b12a)" d="M 941.4625 463.95304 
L 941.4625 463.95304 
" style="fill:none;stroke:#4c4c4c;stroke-linecap:round;stroke-width:3;"/>
   </g>
   <g id="line2d_34">
    <path clip-path="url(#ped6fe3b12a)" d="M 941.4625 385.926939 
L 941.4625 307.900838 
" style="fill:none;stroke:#4c4c4c;stroke-linecap:round;stroke-width:3;"/>
   </g>
   <g id="line2d_35">
    <path clip-path="url(#ped6fe3b12a)" d="M 891.2315 463.95304 
L 991.6935 463.95304 
" style="fill:none;stroke:#4c4c4c;stroke-linecap:round;stroke-width:3;"/>
   </g>
   <g id="line2d_36">
    <path clip-path="url(#ped6fe3b12a)" d="M 891.2315 307.900838 
L 991.6935 307.900838 
" style="fill:none;stroke:#4c4c4c;stroke-linecap:round;stroke-width:3;"/>
   </g>
   <g id="line2d_37">
    <path clip-path="url(#ped6fe3b12a)" d="M 589.8455 203.866037 
L 790.7695 203.866037 
" style="fill:none;stroke:#4c4c4c;stroke-linecap:round;stroke-width:3;"/>
   </g>
   <g id="line2d_38">
    <path clip-path="url(#ped6fe3b12a)" d="M 841.0005 463.95304 
L 1041.9245 463.95304 
" style="fill:none;stroke:#4c4c4c;stroke-linecap:round;stroke-width:3;"/>
   </g>
   <g id="patch_12">
    <path d="M 564.73 484.76 
L 564.73 27.006875 
" style="fill:none;"/>
   </g>
   <g id="patch_13">
    <path d="M 1067.04 484.76 
L 1067.04 27.006875 
" style="fill:none;"/>
   </g>
   <g id="patch_14">
    <path d="M 564.73 484.76 
L 1067.04 484.76 
" style="fill:none;"/>
   </g>
   <g id="patch_15">
    <path d="M 564.73 27.006875 
L 1067.04 27.006875 
" style="fill:none;"/>
   </g>
   <g id="text_24">
    <!-- exang_ca for each target -->
    <defs>
     <path d="M 6.59375 0 
L 6.59375 51.859375 
L 14.5 51.859375 
L 14.5 44.484375 
Q 20.21875 53.03125 31 53.03125 
Q 35.6875 53.03125 39.625 51.34375 
Q 43.5625 49.65625 45.515625 46.921875 
Q 47.46875 44.1875 48.25 40.4375 
Q 48.734375 37.984375 48.734375 31.890625 
L 48.734375 0 
L 39.9375 0 
L 39.9375 31.546875 
Q 39.9375 36.921875 38.90625 39.578125 
Q 37.890625 42.234375 35.28125 43.8125 
Q 32.671875 45.40625 29.15625 45.40625 
Q 23.53125 45.40625 19.453125 41.84375 
Q 15.375 38.28125 15.375 28.328125 
L 15.375 0 
z
" id="ArialMT-110"/>
    </defs>
    <g style="fill:#262626;" transform="translate(749.512812 21.006875)scale(0.12 -0.12)">
     <use xlink:href="#ArialMT-101"/>
     <use x="55.615234" xlink:href="#ArialMT-120"/>
     <use x="105.615234" xlink:href="#ArialMT-97"/>
     <use x="161.230469" xlink:href="#ArialMT-110"/>
     <use x="216.845703" xlink:href="#ArialMT-103"/>
     <use x="272.460938" xlink:href="#ArialMT-95"/>
     <use x="328.076172" xlink:href="#ArialMT-99"/>
     <use x="378.076172" xlink:href="#ArialMT-97"/>
     <use x="433.691406" xlink:href="#ArialMT-32"/>
     <use x="461.474609" xlink:href="#ArialMT-102"/>
     <use x="489.257812" xlink:href="#ArialMT-111"/>
     <use x="544.873047" xlink:href="#ArialMT-114"/>
     <use x="578.173828" xlink:href="#ArialMT-32"/>
     <use x="605.957031" xlink:href="#ArialMT-101"/>
     <use x="661.572266" xlink:href="#ArialMT-97"/>
     <use x="717.1875" xlink:href="#ArialMT-99"/>
     <use x="767.1875" xlink:href="#ArialMT-104"/>
     <use x="822.802734" xlink:href="#ArialMT-32"/>
     <use x="850.585938" xlink:href="#ArialMT-116"/>
     <use x="878.369141" xlink:href="#ArialMT-97"/>
     <use x="933.984375" xlink:href="#ArialMT-114"/>
     <use x="967.285156" xlink:href="#ArialMT-103"/>
     <use x="1022.900391" xlink:href="#ArialMT-101"/>
     <use x="1078.515625" xlink:href="#ArialMT-116"/>
    </g>
   </g>
  </g>
  <g id="axes_3">
   <g id="patch_16">
    <path d="M 31.21 985.52 
L 533.52 985.52 
L 533.52 527.766875 
L 31.21 527.766875 
z
" style="fill:#eaeaf2;"/>
   </g>
   <g id="matplotlib.axis_5">
    <g id="xtick_5">
     <g id="text_25">
      <!-- 0 -->
      <g style="fill:#262626;" transform="translate(154.007031 999.677812)scale(0.1 -0.1)">
       <use xlink:href="#ArialMT-48"/>
      </g>
     </g>
    </g>
    <g id="xtick_6">
     <g id="text_26">
      <!-- 1 -->
      <g style="fill:#262626;" transform="translate(405.162031 999.677812)scale(0.1 -0.1)">
       <use xlink:href="#ArialMT-49"/>
      </g>
     </g>
    </g>
   </g>
   <g id="matplotlib.axis_6">
    <g id="ytick_19">
     <g id="line2d_39">
      <path clip-path="url(#p5133d20809)" d="M 31.21 964.71304 
L 533.52 964.71304 
" style="fill:none;stroke:#ffffff;stroke-linecap:round;"/>
     </g>
     <g id="text_27">
      <!-- 0 -->
      <g style="fill:#262626;" transform="translate(18.649062 968.291946)scale(0.1 -0.1)">
       <use xlink:href="#ArialMT-48"/>
      </g>
     </g>
    </g>
    <g id="ytick_20">
     <g id="line2d_40">
      <path clip-path="url(#p5133d20809)" d="M 31.21 887.650224 
L 533.52 887.650224 
" style="fill:none;stroke:#ffffff;stroke-linecap:round;"/>
     </g>
     <g id="text_28">
      <!-- 5 -->
      <g style="fill:#262626;" transform="translate(18.649062 891.22913)scale(0.1 -0.1)">
       <use xlink:href="#ArialMT-53"/>
      </g>
     </g>
    </g>
    <g id="ytick_21">
     <g id="line2d_41">
      <path clip-path="url(#p5133d20809)" d="M 31.21 810.587408 
L 533.52 810.587408 
" style="fill:none;stroke:#ffffff;stroke-linecap:round;"/>
     </g>
     <g id="text_29">
      <!-- 10 -->
      <g style="fill:#262626;" transform="translate(13.088125 814.166315)scale(0.1 -0.1)">
       <use xlink:href="#ArialMT-49"/>
       <use x="55.615234" xlink:href="#ArialMT-48"/>
      </g>
     </g>
    </g>
    <g id="ytick_22">
     <g id="line2d_42">
      <path clip-path="url(#p5133d20809)" d="M 31.21 733.524593 
L 533.52 733.524593 
" style="fill:none;stroke:#ffffff;stroke-linecap:round;"/>
     </g>
     <g id="text_30">
      <!-- 15 -->
      <g style="fill:#262626;" transform="translate(13.088125 737.103499)scale(0.1 -0.1)">
       <use xlink:href="#ArialMT-49"/>
       <use x="55.615234" xlink:href="#ArialMT-53"/>
      </g>
     </g>
    </g>
    <g id="ytick_23">
     <g id="line2d_43">
      <path clip-path="url(#p5133d20809)" d="M 31.21 656.461777 
L 533.52 656.461777 
" style="fill:none;stroke:#ffffff;stroke-linecap:round;"/>
     </g>
     <g id="text_31">
      <!-- 20 -->
      <g style="fill:#262626;" transform="translate(13.088125 660.040683)scale(0.1 -0.1)">
       <use xlink:href="#ArialMT-50"/>
       <use x="55.615234" xlink:href="#ArialMT-48"/>
      </g>
     </g>
    </g>
    <g id="ytick_24">
     <g id="line2d_44">
      <path clip-path="url(#p5133d20809)" d="M 31.21 579.398961 
L 533.52 579.398961 
" style="fill:none;stroke:#ffffff;stroke-linecap:round;"/>
     </g>
     <g id="text_32">
      <!-- 25 -->
      <g style="fill:#262626;" transform="translate(13.088125 582.977868)scale(0.1 -0.1)">
       <use xlink:href="#ArialMT-50"/>
       <use x="55.615234" xlink:href="#ArialMT-53"/>
      </g>
     </g>
    </g>
   </g>
   <g id="patch_17">
    <path clip-path="url(#p5133d20809)" d="M 56.3255 795.174845 
L 257.2495 795.174845 
L 257.2495 641.049214 
L 56.3255 641.049214 
L 56.3255 795.174845 
z
" style="fill:#657897;stroke:#4c4c4c;stroke-linejoin:miter;stroke-width:3;"/>
   </g>
   <g id="patch_18">
    <path clip-path="url(#p5133d20809)" d="M 307.4805 810.587408 
L 508.4045 810.587408 
L 508.4045 748.937156 
L 307.4805 748.937156 
L 307.4805 810.587408 
z
" style="fill:#6a9373;stroke:#4c4c4c;stroke-linejoin:miter;stroke-width:3;"/>
   </g>
   <g id="line2d_45">
    <path clip-path="url(#p5133d20809)" d="M 156.7875 795.174845 
L 156.7875 964.71304 
" style="fill:none;stroke:#4c4c4c;stroke-linecap:round;stroke-width:3;"/>
   </g>
   <g id="line2d_46">
    <path clip-path="url(#p5133d20809)" d="M 156.7875 641.049214 
L 156.7875 548.573835 
" style="fill:none;stroke:#4c4c4c;stroke-linecap:round;stroke-width:3;"/>
   </g>
   <g id="line2d_47">
    <path clip-path="url(#p5133d20809)" d="M 106.5565 964.71304 
L 207.0185 964.71304 
" style="fill:none;stroke:#4c4c4c;stroke-linecap:round;stroke-width:3;"/>
   </g>
   <g id="line2d_48">
    <path clip-path="url(#p5133d20809)" d="M 106.5565 548.573835 
L 207.0185 548.573835 
" style="fill:none;stroke:#4c4c4c;stroke-linecap:round;stroke-width:3;"/>
   </g>
   <g id="line2d_49">
    <path clip-path="url(#p5133d20809)" d="M 407.9425 810.587408 
L 407.9425 903.062787 
" style="fill:none;stroke:#4c4c4c;stroke-linecap:round;stroke-width:3;"/>
   </g>
   <g id="line2d_50">
    <path clip-path="url(#p5133d20809)" d="M 407.9425 748.937156 
L 407.9425 656.461777 
" style="fill:none;stroke:#4c4c4c;stroke-linecap:round;stroke-width:3;"/>
   </g>
   <g id="line2d_51">
    <path clip-path="url(#p5133d20809)" d="M 357.7115 903.062787 
L 458.1735 903.062787 
" style="fill:none;stroke:#4c4c4c;stroke-linecap:round;stroke-width:3;"/>
   </g>
   <g id="line2d_52">
    <path clip-path="url(#p5133d20809)" d="M 357.7115 656.461777 
L 458.1735 656.461777 
" style="fill:none;stroke:#4c4c4c;stroke-linecap:round;stroke-width:3;"/>
   </g>
   <g id="line2d_53">
    <path clip-path="url(#p5133d20809)" d="M 56.3255 671.87434 
L 257.2495 671.87434 
" style="fill:none;stroke:#4c4c4c;stroke-linecap:round;stroke-width:3;"/>
   </g>
   <g id="line2d_54">
    <path clip-path="url(#p5133d20809)" d="M 307.4805 795.174845 
L 508.4045 795.174845 
" style="fill:none;stroke:#4c4c4c;stroke-linecap:round;stroke-width:3;"/>
   </g>
   <g id="patch_19">
    <path d="M 31.21 985.52 
L 31.21 527.766875 
" style="fill:none;"/>
   </g>
   <g id="patch_20">
    <path d="M 533.52 985.52 
L 533.52 527.766875 
" style="fill:none;"/>
   </g>
   <g id="patch_21">
    <path d="M 31.21 985.52 
L 533.52 985.52 
" style="fill:none;"/>
   </g>
   <g id="patch_22">
    <path d="M 31.21 527.766875 
L 533.52 527.766875 
" style="fill:none;"/>
   </g>
   <g id="text_33">
    <!-- thal_trestbps2 for each target -->
    <defs>
     <path d="M 6.390625 0 
L 6.390625 71.578125 
L 15.1875 71.578125 
L 15.1875 0 
z
" id="ArialMT-108"/>
     <path d="M 14.703125 0 
L 6.546875 0 
L 6.546875 71.578125 
L 15.328125 71.578125 
L 15.328125 46.046875 
Q 20.90625 53.03125 29.546875 53.03125 
Q 34.328125 53.03125 38.59375 51.09375 
Q 42.875 49.171875 45.625 45.671875 
Q 48.390625 42.1875 49.953125 37.25 
Q 51.515625 32.328125 51.515625 26.703125 
Q 51.515625 13.375 44.921875 6.09375 
Q 38.328125 -1.171875 29.109375 -1.171875 
Q 19.921875 -1.171875 14.703125 6.5 
z
M 14.59375 26.3125 
Q 14.59375 17 17.140625 12.84375 
Q 21.296875 6.0625 28.375 6.0625 
Q 34.125 6.0625 38.328125 11.0625 
Q 42.53125 16.0625 42.53125 25.984375 
Q 42.53125 36.140625 38.5 40.96875 
Q 34.46875 45.796875 28.765625 45.796875 
Q 23 45.796875 18.796875 40.796875 
Q 14.59375 35.796875 14.59375 26.3125 
z
" id="ArialMT-98"/>
     <path d="M 6.59375 -19.875 
L 6.59375 51.859375 
L 14.59375 51.859375 
L 14.59375 45.125 
Q 17.4375 49.078125 21 51.046875 
Q 24.5625 53.03125 29.640625 53.03125 
Q 36.28125 53.03125 41.359375 49.609375 
Q 46.4375 46.1875 49.015625 39.953125 
Q 51.609375 33.734375 51.609375 26.3125 
Q 51.609375 18.359375 48.75 11.984375 
Q 45.90625 5.609375 40.453125 2.21875 
Q 35.015625 -1.171875 29 -1.171875 
Q 24.609375 -1.171875 21.109375 0.6875 
Q 17.625 2.546875 15.375 5.375 
L 15.375 -19.875 
z
M 14.546875 25.640625 
Q 14.546875 15.625 18.59375 10.84375 
Q 22.65625 6.0625 28.421875 6.0625 
Q 34.28125 6.0625 38.453125 11.015625 
Q 42.625 15.96875 42.625 26.375 
Q 42.625 36.28125 38.546875 41.203125 
Q 34.46875 46.140625 28.8125 46.140625 
Q 23.1875 46.140625 18.859375 40.890625 
Q 14.546875 35.640625 14.546875 25.640625 
z
" id="ArialMT-112"/>
    </defs>
    <g style="fill:#262626;" transform="translate(204.324688 521.766875)scale(0.12 -0.12)">
     <use xlink:href="#ArialMT-116"/>
     <use x="27.783203" xlink:href="#ArialMT-104"/>
     <use x="83.398438" xlink:href="#ArialMT-97"/>
     <use x="139.013672" xlink:href="#ArialMT-108"/>
     <use x="161.230469" xlink:href="#ArialMT-95"/>
     <use x="216.845703" xlink:href="#ArialMT-116"/>
     <use x="244.628906" xlink:href="#ArialMT-114"/>
     <use x="277.929688" xlink:href="#ArialMT-101"/>
     <use x="333.544922" xlink:href="#ArialMT-115"/>
     <use x="383.544922" xlink:href="#ArialMT-116"/>
     <use x="411.328125" xlink:href="#ArialMT-98"/>
     <use x="466.943359" xlink:href="#ArialMT-112"/>
     <use x="522.558594" xlink:href="#ArialMT-115"/>
     <use x="572.558594" xlink:href="#ArialMT-50"/>
     <use x="628.173828" xlink:href="#ArialMT-32"/>
     <use x="655.957031" xlink:href="#ArialMT-102"/>
     <use x="683.740234" xlink:href="#ArialMT-111"/>
     <use x="739.355469" xlink:href="#ArialMT-114"/>
     <use x="772.65625" xlink:href="#ArialMT-32"/>
     <use x="800.439453" xlink:href="#ArialMT-101"/>
     <use x="856.054688" xlink:href="#ArialMT-97"/>
     <use x="911.669922" xlink:href="#ArialMT-99"/>
     <use x="961.669922" xlink:href="#ArialMT-104"/>
     <use x="1017.285156" xlink:href="#ArialMT-32"/>
     <use x="1045.068359" xlink:href="#ArialMT-116"/>
     <use x="1072.851562" xlink:href="#ArialMT-97"/>
     <use x="1128.466797" xlink:href="#ArialMT-114"/>
     <use x="1161.767578" xlink:href="#ArialMT-103"/>
     <use x="1217.382812" xlink:href="#ArialMT-101"/>
     <use x="1272.998047" xlink:href="#ArialMT-116"/>
    </g>
   </g>
  </g>
  <g id="axes_4">
   <g id="patch_23">
    <path d="M 564.73 985.52 
L 1067.04 985.52 
L 1067.04 527.766875 
L 564.73 527.766875 
z
" style="fill:#eaeaf2;"/>
   </g>
   <g id="matplotlib.axis_7">
    <g id="xtick_7">
     <g id="text_34">
      <!-- 0 -->
      <g style="fill:#262626;" transform="translate(687.527031 999.677812)scale(0.1 -0.1)">
       <use xlink:href="#ArialMT-48"/>
      </g>
     </g>
    </g>
    <g id="xtick_8">
     <g id="text_35">
      <!-- 1 -->
      <g style="fill:#262626;" transform="translate(938.682031 999.677812)scale(0.1 -0.1)">
       <use xlink:href="#ArialMT-49"/>
      </g>
     </g>
    </g>
   </g>
   <g id="matplotlib.axis_8">
    <g id="ytick_25">
     <g id="line2d_55">
      <path clip-path="url(#p8c55def8a7)" d="M 564.73 978.584347 
L 1067.04 978.584347 
" style="fill:none;stroke:#ffffff;stroke-linecap:round;"/>
     </g>
     <g id="text_36">
      <!-- 0 -->
      <g style="fill:#262626;" transform="translate(552.169062 982.163253)scale(0.1 -0.1)">
       <use xlink:href="#ArialMT-48"/>
      </g>
     </g>
    </g>
    <g id="ytick_26">
     <g id="line2d_56">
      <path clip-path="url(#p8c55def8a7)" d="M 564.73 909.227812 
L 1067.04 909.227812 
" style="fill:none;stroke:#ffffff;stroke-linecap:round;"/>
     </g>
     <g id="text_37">
      <!-- 5 -->
      <g style="fill:#262626;" transform="translate(552.169062 912.806719)scale(0.1 -0.1)">
       <use xlink:href="#ArialMT-53"/>
      </g>
     </g>
    </g>
    <g id="ytick_27">
     <g id="line2d_57">
      <path clip-path="url(#p8c55def8a7)" d="M 564.73 839.871278 
L 1067.04 839.871278 
" style="fill:none;stroke:#ffffff;stroke-linecap:round;"/>
     </g>
     <g id="text_38">
      <!-- 10 -->
      <g style="fill:#262626;" transform="translate(546.608125 843.450185)scale(0.1 -0.1)">
       <use xlink:href="#ArialMT-49"/>
       <use x="55.615234" xlink:href="#ArialMT-48"/>
      </g>
     </g>
    </g>
    <g id="ytick_28">
     <g id="line2d_58">
      <path clip-path="url(#p8c55def8a7)" d="M 564.73 770.514744 
L 1067.04 770.514744 
" style="fill:none;stroke:#ffffff;stroke-linecap:round;"/>
     </g>
     <g id="text_39">
      <!-- 15 -->
      <g style="fill:#262626;" transform="translate(546.608125 774.093651)scale(0.1 -0.1)">
       <use xlink:href="#ArialMT-49"/>
       <use x="55.615234" xlink:href="#ArialMT-53"/>
      </g>
     </g>
    </g>
    <g id="ytick_29">
     <g id="line2d_59">
      <path clip-path="url(#p8c55def8a7)" d="M 564.73 701.15821 
L 1067.04 701.15821 
" style="fill:none;stroke:#ffffff;stroke-linecap:round;"/>
     </g>
     <g id="text_40">
      <!-- 20 -->
      <g style="fill:#262626;" transform="translate(546.608125 704.737116)scale(0.1 -0.1)">
       <use xlink:href="#ArialMT-50"/>
       <use x="55.615234" xlink:href="#ArialMT-48"/>
      </g>
     </g>
    </g>
    <g id="ytick_30">
     <g id="line2d_60">
      <path clip-path="url(#p8c55def8a7)" d="M 564.73 631.801676 
L 1067.04 631.801676 
" style="fill:none;stroke:#ffffff;stroke-linecap:round;"/>
     </g>
     <g id="text_41">
      <!-- 25 -->
      <g style="fill:#262626;" transform="translate(546.608125 635.380582)scale(0.1 -0.1)">
       <use xlink:href="#ArialMT-50"/>
       <use x="55.615234" xlink:href="#ArialMT-53"/>
      </g>
     </g>
    </g>
    <g id="ytick_31">
     <g id="line2d_61">
      <path clip-path="url(#p8c55def8a7)" d="M 564.73 562.445142 
L 1067.04 562.445142 
" style="fill:none;stroke:#ffffff;stroke-linecap:round;"/>
     </g>
     <g id="text_42">
      <!-- 30 -->
      <g style="fill:#262626;" transform="translate(546.608125 566.024048)scale(0.1 -0.1)">
       <use xlink:href="#ArialMT-51"/>
       <use x="55.615234" xlink:href="#ArialMT-48"/>
      </g>
     </g>
    </g>
   </g>
   <g id="patch_24">
    <path clip-path="url(#p8c55def8a7)" d="M 589.8455 798.257358 
L 790.7695 798.257358 
L 790.7695 617.930369 
L 589.8455 617.930369 
L 589.8455 798.257358 
z
" style="fill:#657897;stroke:#4c4c4c;stroke-linejoin:miter;stroke-width:3;"/>
   </g>
   <g id="patch_25">
    <path clip-path="url(#p8c55def8a7)" d="M 841.0005 839.871278 
L 1041.9245 839.871278 
L 1041.9245 784.386051 
L 841.0005 784.386051 
L 841.0005 839.871278 
z
" style="fill:#6a9373;stroke:#4c4c4c;stroke-linejoin:miter;stroke-width:3;"/>
   </g>
   <g id="line2d_62">
    <path clip-path="url(#p8c55def8a7)" d="M 690.3075 798.257358 
L 690.3075 964.71304 
" style="fill:none;stroke:#4c4c4c;stroke-linecap:round;stroke-width:3;"/>
   </g>
   <g id="line2d_63">
    <path clip-path="url(#p8c55def8a7)" d="M 690.3075 617.930369 
L 690.3075 548.573835 
" style="fill:none;stroke:#4c4c4c;stroke-linecap:round;stroke-width:3;"/>
   </g>
   <g id="line2d_64">
    <path clip-path="url(#p8c55def8a7)" d="M 640.0765 964.71304 
L 740.5385 964.71304 
" style="fill:none;stroke:#4c4c4c;stroke-linecap:round;stroke-width:3;"/>
   </g>
   <g id="line2d_65">
    <path clip-path="url(#p8c55def8a7)" d="M 640.0765 548.573835 
L 740.5385 548.573835 
" style="fill:none;stroke:#4c4c4c;stroke-linecap:round;stroke-width:3;"/>
   </g>
   <g id="line2d_66">
    <path clip-path="url(#p8c55def8a7)" d="M 941.4625 839.871278 
L 941.4625 895.356506 
" style="fill:none;stroke:#4c4c4c;stroke-linecap:round;stroke-width:3;"/>
   </g>
   <g id="line2d_67">
    <path clip-path="url(#p8c55def8a7)" d="M 941.4625 784.386051 
L 941.4625 701.15821 
" style="fill:none;stroke:#4c4c4c;stroke-linecap:round;stroke-width:3;"/>
   </g>
   <g id="line2d_68">
    <path clip-path="url(#p8c55def8a7)" d="M 891.2315 895.356506 
L 991.6935 895.356506 
" style="fill:none;stroke:#4c4c4c;stroke-linecap:round;stroke-width:3;"/>
   </g>
   <g id="line2d_69">
    <path clip-path="url(#p8c55def8a7)" d="M 891.2315 701.15821 
L 991.6935 701.15821 
" style="fill:none;stroke:#4c4c4c;stroke-linecap:round;stroke-width:3;"/>
   </g>
   <g id="line2d_70">
    <path clip-path="url(#p8c55def8a7)" d="M 589.8455 652.608636 
L 790.7695 652.608636 
" style="fill:none;stroke:#4c4c4c;stroke-linecap:round;stroke-width:3;"/>
   </g>
   <g id="line2d_71">
    <path clip-path="url(#p8c55def8a7)" d="M 841.0005 812.128665 
L 1041.9245 812.128665 
" style="fill:none;stroke:#4c4c4c;stroke-linecap:round;stroke-width:3;"/>
   </g>
   <g id="patch_26">
    <path d="M 564.73 985.52 
L 564.73 527.766875 
" style="fill:none;"/>
   </g>
   <g id="patch_27">
    <path d="M 1067.04 985.52 
L 1067.04 527.766875 
" style="fill:none;"/>
   </g>
   <g id="patch_28">
    <path d="M 564.73 985.52 
L 1067.04 985.52 
" style="fill:none;"/>
   </g>
   <g id="patch_29">
    <path d="M 564.73 527.766875 
L 1067.04 527.766875 
" style="fill:none;"/>
   </g>
   <g id="text_43">
    <!-- thal_oldpeak2 for each target -->
    <defs>
     <path d="M 40.234375 0 
L 40.234375 6.546875 
Q 35.296875 -1.171875 25.734375 -1.171875 
Q 19.53125 -1.171875 14.328125 2.25 
Q 9.125 5.671875 6.265625 11.796875 
Q 3.421875 17.921875 3.421875 25.875 
Q 3.421875 33.640625 6 39.96875 
Q 8.59375 46.296875 13.765625 49.65625 
Q 18.953125 53.03125 25.34375 53.03125 
Q 30.03125 53.03125 33.6875 51.046875 
Q 37.359375 49.078125 39.65625 45.90625 
L 39.65625 71.578125 
L 48.390625 71.578125 
L 48.390625 0 
z
M 12.453125 25.875 
Q 12.453125 15.921875 16.640625 10.984375 
Q 20.84375 6.0625 26.5625 6.0625 
Q 32.328125 6.0625 36.34375 10.765625 
Q 40.375 15.484375 40.375 25.140625 
Q 40.375 35.796875 36.265625 40.765625 
Q 32.171875 45.75 26.171875 45.75 
Q 20.3125 45.75 16.375 40.96875 
Q 12.453125 36.1875 12.453125 25.875 
z
" id="ArialMT-100"/>
     <path d="M 6.640625 0 
L 6.640625 71.578125 
L 15.4375 71.578125 
L 15.4375 30.765625 
L 36.234375 51.859375 
L 47.609375 51.859375 
L 27.78125 32.625 
L 49.609375 0 
L 38.765625 0 
L 21.625 26.515625 
L 15.4375 20.5625 
L 15.4375 0 
z
" id="ArialMT-107"/>
    </defs>
    <g style="fill:#262626;" transform="translate(738.17 521.766875)scale(0.12 -0.12)">
     <use xlink:href="#ArialMT-116"/>
     <use x="27.783203" xlink:href="#ArialMT-104"/>
     <use x="83.398438" xlink:href="#ArialMT-97"/>
     <use x="139.013672" xlink:href="#ArialMT-108"/>
     <use x="161.230469" xlink:href="#ArialMT-95"/>
     <use x="216.845703" xlink:href="#ArialMT-111"/>
     <use x="272.460938" xlink:href="#ArialMT-108"/>
     <use x="294.677734" xlink:href="#ArialMT-100"/>
     <use x="350.292969" xlink:href="#ArialMT-112"/>
     <use x="405.908203" xlink:href="#ArialMT-101"/>
     <use x="461.523438" xlink:href="#ArialMT-97"/>
     <use x="517.138672" xlink:href="#ArialMT-107"/>
     <use x="567.138672" xlink:href="#ArialMT-50"/>
     <use x="622.753906" xlink:href="#ArialMT-32"/>
     <use x="650.537109" xlink:href="#ArialMT-102"/>
     <use x="678.320312" xlink:href="#ArialMT-111"/>
     <use x="733.935547" xlink:href="#ArialMT-114"/>
     <use x="767.236328" xlink:href="#ArialMT-32"/>
     <use x="795.019531" xlink:href="#ArialMT-101"/>
     <use x="850.634766" xlink:href="#ArialMT-97"/>
     <use x="906.25" xlink:href="#ArialMT-99"/>
     <use x="956.25" xlink:href="#ArialMT-104"/>
     <use x="1011.865234" xlink:href="#ArialMT-32"/>
     <use x="1039.648438" xlink:href="#ArialMT-116"/>
     <use x="1067.431641" xlink:href="#ArialMT-97"/>
     <use x="1123.046875" xlink:href="#ArialMT-114"/>
     <use x="1156.347656" xlink:href="#ArialMT-103"/>
     <use x="1211.962891" xlink:href="#ArialMT-101"/>
     <use x="1267.578125" xlink:href="#ArialMT-116"/>
    </g>
   </g>
  </g>
  <g id="axes_5">
   <g id="patch_30">
    <path d="M 31.21 1486.28 
L 533.52 1486.28 
L 533.52 1028.526875 
L 31.21 1028.526875 
z
" style="fill:#eaeaf2;"/>
   </g>
   <g id="matplotlib.axis_9">
    <g id="xtick_9">
     <g id="text_44">
      <!-- 0 -->
      <g style="fill:#262626;" transform="translate(154.007031 1500.437812)scale(0.1 -0.1)">
       <use xlink:href="#ArialMT-48"/>
      </g>
     </g>
    </g>
    <g id="xtick_10">
     <g id="text_45">
      <!-- 1 -->
      <g style="fill:#262626;" transform="translate(405.162031 1500.437812)scale(0.1 -0.1)">
       <use xlink:href="#ArialMT-49"/>
      </g>
     </g>
    </g>
   </g>
   <g id="matplotlib.axis_10">
    <g id="ytick_32">
     <g id="line2d_72">
      <path clip-path="url(#p2d2e5257e5)" d="M 31.21 1465.47304 
L 533.52 1465.47304 
" style="fill:none;stroke:#ffffff;stroke-linecap:round;"/>
     </g>
     <g id="text_46">
      <!-- 0 -->
      <g style="fill:#262626;" transform="translate(18.649062 1469.051946)scale(0.1 -0.1)">
       <use xlink:href="#ArialMT-48"/>
      </g>
     </g>
    </g>
    <g id="ytick_33">
     <g id="line2d_73">
      <path clip-path="url(#p2d2e5257e5)" d="M 31.21 1396.116506 
L 533.52 1396.116506 
" style="fill:none;stroke:#ffffff;stroke-linecap:round;"/>
     </g>
     <g id="text_47">
      <!-- 1 -->
      <g style="fill:#262626;" transform="translate(18.649062 1399.695412)scale(0.1 -0.1)">
       <use xlink:href="#ArialMT-49"/>
      </g>
     </g>
    </g>
    <g id="ytick_34">
     <g id="line2d_74">
      <path clip-path="url(#p2d2e5257e5)" d="M 31.21 1326.759972 
L 533.52 1326.759972 
" style="fill:none;stroke:#ffffff;stroke-linecap:round;"/>
     </g>
     <g id="text_48">
      <!-- 2 -->
      <g style="fill:#262626;" transform="translate(18.649062 1330.338878)scale(0.1 -0.1)">
       <use xlink:href="#ArialMT-50"/>
      </g>
     </g>
    </g>
    <g id="ytick_35">
     <g id="line2d_75">
      <path clip-path="url(#p2d2e5257e5)" d="M 31.21 1257.403437 
L 533.52 1257.403437 
" style="fill:none;stroke:#ffffff;stroke-linecap:round;"/>
     </g>
     <g id="text_49">
      <!-- 3 -->
      <g style="fill:#262626;" transform="translate(18.649062 1260.982344)scale(0.1 -0.1)">
       <use xlink:href="#ArialMT-51"/>
      </g>
     </g>
    </g>
    <g id="ytick_36">
     <g id="line2d_76">
      <path clip-path="url(#p2d2e5257e5)" d="M 31.21 1188.046903 
L 533.52 1188.046903 
" style="fill:none;stroke:#ffffff;stroke-linecap:round;"/>
     </g>
     <g id="text_50">
      <!-- 4 -->
      <g style="fill:#262626;" transform="translate(18.649062 1191.62581)scale(0.1 -0.1)">
       <use xlink:href="#ArialMT-52"/>
      </g>
     </g>
    </g>
    <g id="ytick_37">
     <g id="line2d_77">
      <path clip-path="url(#p2d2e5257e5)" d="M 31.21 1118.690369 
L 533.52 1118.690369 
" style="fill:none;stroke:#ffffff;stroke-linecap:round;"/>
     </g>
     <g id="text_51">
      <!-- 5 -->
      <g style="fill:#262626;" transform="translate(18.649062 1122.269276)scale(0.1 -0.1)">
       <use xlink:href="#ArialMT-53"/>
      </g>
     </g>
    </g>
    <g id="ytick_38">
     <g id="line2d_78">
      <path clip-path="url(#p2d2e5257e5)" d="M 31.21 1049.333835 
L 533.52 1049.333835 
" style="fill:none;stroke:#ffffff;stroke-linecap:round;"/>
     </g>
     <g id="text_52">
      <!-- 6 -->
      <g style="fill:#262626;" transform="translate(18.649062 1052.912741)scale(0.1 -0.1)">
       <use xlink:href="#ArialMT-54"/>
      </g>
     </g>
    </g>
   </g>
   <g id="patch_31">
    <path clip-path="url(#p2d2e5257e5)" d="M 56.3255 1465.47304 
L 257.2495 1465.47304 
L 257.2495 1326.759972 
L 56.3255 1326.759972 
L 56.3255 1465.47304 
z
" style="fill:#657897;stroke:#4c4c4c;stroke-linejoin:miter;stroke-width:3;"/>
   </g>
   <g id="patch_32">
    <path clip-path="url(#p2d2e5257e5)" d="M 307.4805 1396.116506 
L 508.4045 1396.116506 
L 508.4045 1257.403437 
L 307.4805 1257.403437 
L 307.4805 1396.116506 
z
" style="fill:#6a9373;stroke:#4c4c4c;stroke-linejoin:miter;stroke-width:3;"/>
   </g>
   <g id="line2d_79">
    <path clip-path="url(#p2d2e5257e5)" d="M 156.7875 1465.47304 
L 156.7875 1465.47304 
" style="fill:none;stroke:#4c4c4c;stroke-linecap:round;stroke-width:3;"/>
   </g>
   <g id="line2d_80">
    <path clip-path="url(#p2d2e5257e5)" d="M 156.7875 1326.759972 
L 156.7875 1118.690369 
" style="fill:none;stroke:#4c4c4c;stroke-linecap:round;stroke-width:3;"/>
   </g>
   <g id="line2d_81">
    <path clip-path="url(#p2d2e5257e5)" d="M 106.5565 1465.47304 
L 207.0185 1465.47304 
" style="fill:none;stroke:#4c4c4c;stroke-linecap:round;stroke-width:3;"/>
   </g>
   <g id="line2d_82">
    <path clip-path="url(#p2d2e5257e5)" d="M 106.5565 1118.690369 
L 207.0185 1118.690369 
" style="fill:none;stroke:#4c4c4c;stroke-linecap:round;stroke-width:3;"/>
   </g>
   <g id="line2d_83">
    <path clip-path="url(#p2d2e5257e5)" d="M 407.9425 1396.116506 
L 407.9425 1465.47304 
" style="fill:none;stroke:#4c4c4c;stroke-linecap:round;stroke-width:3;"/>
   </g>
   <g id="line2d_84">
    <path clip-path="url(#p2d2e5257e5)" d="M 407.9425 1257.403437 
L 407.9425 1049.333835 
" style="fill:none;stroke:#4c4c4c;stroke-linecap:round;stroke-width:3;"/>
   </g>
   <g id="line2d_85">
    <path clip-path="url(#p2d2e5257e5)" d="M 357.7115 1465.47304 
L 458.1735 1465.47304 
" style="fill:none;stroke:#4c4c4c;stroke-linecap:round;stroke-width:3;"/>
   </g>
   <g id="line2d_86">
    <path clip-path="url(#p2d2e5257e5)" d="M 357.7115 1049.333835 
L 458.1735 1049.333835 
" style="fill:none;stroke:#4c4c4c;stroke-linecap:round;stroke-width:3;"/>
   </g>
   <g id="line2d_87">
    <path clip-path="url(#p2d2e5257e5)" d="M 56.3255 1465.47304 
L 257.2495 1465.47304 
" style="fill:none;stroke:#4c4c4c;stroke-linecap:round;stroke-width:3;"/>
   </g>
   <g id="line2d_88">
    <path clip-path="url(#p2d2e5257e5)" d="M 307.4805 1326.759972 
L 508.4045 1326.759972 
" style="fill:none;stroke:#4c4c4c;stroke-linecap:round;stroke-width:3;"/>
   </g>
   <g id="patch_33">
    <path d="M 31.21 1486.28 
L 31.21 1028.526875 
" style="fill:none;"/>
   </g>
   <g id="patch_34">
    <path d="M 533.52 1486.28 
L 533.52 1028.526875 
" style="fill:none;"/>
   </g>
   <g id="patch_35">
    <path d="M 31.21 1486.28 
L 533.52 1486.28 
" style="fill:none;"/>
   </g>
   <g id="patch_36">
    <path d="M 31.21 1028.526875 
L 533.52 1028.526875 
" style="fill:none;"/>
   </g>
   <g id="text_53">
    <!-- fbs_cp for each target -->
    <g style="fill:#262626;" transform="translate(224.335625 1022.526875)scale(0.12 -0.12)">
     <use xlink:href="#ArialMT-102"/>
     <use x="27.783203" xlink:href="#ArialMT-98"/>
     <use x="83.398438" xlink:href="#ArialMT-115"/>
     <use x="133.398438" xlink:href="#ArialMT-95"/>
     <use x="189.013672" xlink:href="#ArialMT-99"/>
     <use x="239.013672" xlink:href="#ArialMT-112"/>
     <use x="294.628906" xlink:href="#ArialMT-32"/>
     <use x="322.412109" xlink:href="#ArialMT-102"/>
     <use x="350.195312" xlink:href="#ArialMT-111"/>
     <use x="405.810547" xlink:href="#ArialMT-114"/>
     <use x="439.111328" xlink:href="#ArialMT-32"/>
     <use x="466.894531" xlink:href="#ArialMT-101"/>
     <use x="522.509766" xlink:href="#ArialMT-97"/>
     <use x="578.125" xlink:href="#ArialMT-99"/>
     <use x="628.125" xlink:href="#ArialMT-104"/>
     <use x="683.740234" xlink:href="#ArialMT-32"/>
     <use x="711.523438" xlink:href="#ArialMT-116"/>
     <use x="739.306641" xlink:href="#ArialMT-97"/>
     <use x="794.921875" xlink:href="#ArialMT-114"/>
     <use x="828.222656" xlink:href="#ArialMT-103"/>
     <use x="883.837891" xlink:href="#ArialMT-101"/>
     <use x="939.453125" xlink:href="#ArialMT-116"/>
    </g>
   </g>
  </g>
  <g id="axes_6">
   <g id="patch_37">
    <path d="M 564.73 1486.28 
L 1067.04 1486.28 
L 1067.04 1028.526875 
L 564.73 1028.526875 
z
" style="fill:#eaeaf2;"/>
   </g>
   <g id="matplotlib.axis_11">
    <g id="xtick_11">
     <g id="text_54">
      <!-- 0 -->
      <g style="fill:#262626;" transform="translate(687.527031 1500.437812)scale(0.1 -0.1)">
       <use xlink:href="#ArialMT-48"/>
      </g>
     </g>
    </g>
    <g id="xtick_12">
     <g id="text_55">
      <!-- 1 -->
      <g style="fill:#262626;" transform="translate(938.682031 1500.437812)scale(0.1 -0.1)">
       <use xlink:href="#ArialMT-49"/>
      </g>
     </g>
    </g>
   </g>
   <g id="matplotlib.axis_12">
    <g id="ytick_39">
     <g id="line2d_89">
      <path clip-path="url(#p9d20f2ab71)" d="M 564.73 1465.47304 
L 1067.04 1465.47304 
" style="fill:none;stroke:#ffffff;stroke-linecap:round;"/>
     </g>
     <g id="text_56">
      <!-- 2 -->
      <g style="fill:#262626;" transform="translate(552.169062 1469.051946)scale(0.1 -0.1)">
       <use xlink:href="#ArialMT-50"/>
      </g>
     </g>
    </g>
    <g id="ytick_40">
     <g id="line2d_90">
      <path clip-path="url(#p9d20f2ab71)" d="M 564.73 1413.455639 
L 1067.04 1413.455639 
" style="fill:none;stroke:#ffffff;stroke-linecap:round;"/>
     </g>
     <g id="text_57">
      <!-- 3 -->
      <g style="fill:#262626;" transform="translate(552.169062 1417.034545)scale(0.1 -0.1)">
       <use xlink:href="#ArialMT-51"/>
      </g>
     </g>
    </g>
    <g id="ytick_41">
     <g id="line2d_91">
      <path clip-path="url(#p9d20f2ab71)" d="M 564.73 1361.438239 
L 1067.04 1361.438239 
" style="fill:none;stroke:#ffffff;stroke-linecap:round;"/>
     </g>
     <g id="text_58">
      <!-- 4 -->
      <g style="fill:#262626;" transform="translate(552.169062 1365.017145)scale(0.1 -0.1)">
       <use xlink:href="#ArialMT-52"/>
      </g>
     </g>
    </g>
    <g id="ytick_42">
     <g id="line2d_92">
      <path clip-path="url(#p9d20f2ab71)" d="M 564.73 1309.420838 
L 1067.04 1309.420838 
" style="fill:none;stroke:#ffffff;stroke-linecap:round;"/>
     </g>
     <g id="text_59">
      <!-- 5 -->
      <g style="fill:#262626;" transform="translate(552.169062 1312.999744)scale(0.1 -0.1)">
       <use xlink:href="#ArialMT-53"/>
      </g>
     </g>
    </g>
    <g id="ytick_43">
     <g id="line2d_93">
      <path clip-path="url(#p9d20f2ab71)" d="M 564.73 1257.403437 
L 1067.04 1257.403437 
" style="fill:none;stroke:#ffffff;stroke-linecap:round;"/>
     </g>
     <g id="text_60">
      <!-- 6 -->
      <g style="fill:#262626;" transform="translate(552.169062 1260.982344)scale(0.1 -0.1)">
       <use xlink:href="#ArialMT-54"/>
      </g>
     </g>
    </g>
    <g id="ytick_44">
     <g id="line2d_94">
      <path clip-path="url(#p9d20f2ab71)" d="M 564.73 1205.386037 
L 1067.04 1205.386037 
" style="fill:none;stroke:#ffffff;stroke-linecap:round;"/>
     </g>
     <g id="text_61">
      <!-- 7 -->
      <g style="fill:#262626;" transform="translate(552.169062 1208.964943)scale(0.1 -0.1)">
       <use xlink:href="#ArialMT-55"/>
      </g>
     </g>
    </g>
    <g id="ytick_45">
     <g id="line2d_95">
      <path clip-path="url(#p9d20f2ab71)" d="M 564.73 1153.368636 
L 1067.04 1153.368636 
" style="fill:none;stroke:#ffffff;stroke-linecap:round;"/>
     </g>
     <g id="text_62">
      <!-- 8 -->
      <g style="fill:#262626;" transform="translate(552.169062 1156.947543)scale(0.1 -0.1)">
       <use xlink:href="#ArialMT-56"/>
      </g>
     </g>
    </g>
    <g id="ytick_46">
     <g id="line2d_96">
      <path clip-path="url(#p9d20f2ab71)" d="M 564.73 1101.351236 
L 1067.04 1101.351236 
" style="fill:none;stroke:#ffffff;stroke-linecap:round;"/>
     </g>
     <g id="text_63">
      <!-- 9 -->
      <defs>
       <path d="M 5.46875 16.546875 
L 13.921875 17.328125 
Q 14.984375 11.375 18.015625 8.6875 
Q 21.046875 6 25.78125 6 
Q 29.828125 6 32.875 7.859375 
Q 35.9375 9.71875 37.890625 12.8125 
Q 39.84375 15.921875 41.15625 21.1875 
Q 42.484375 26.46875 42.484375 31.9375 
Q 42.484375 32.515625 42.4375 33.6875 
Q 39.796875 29.5 35.234375 26.875 
Q 30.671875 24.265625 25.34375 24.265625 
Q 16.453125 24.265625 10.296875 30.703125 
Q 4.15625 37.15625 4.15625 47.703125 
Q 4.15625 58.59375 10.578125 65.234375 
Q 17 71.875 26.65625 71.875 
Q 33.640625 71.875 39.421875 68.109375 
Q 45.21875 64.359375 48.21875 57.390625 
Q 51.21875 50.4375 51.21875 37.25 
Q 51.21875 23.53125 48.234375 15.40625 
Q 45.265625 7.28125 39.375 3.03125 
Q 33.5 -1.21875 25.59375 -1.21875 
Q 17.1875 -1.21875 11.859375 3.4375 
Q 6.546875 8.109375 5.46875 16.546875 
z
M 41.453125 48.140625 
Q 41.453125 55.71875 37.421875 60.15625 
Q 33.40625 64.59375 27.734375 64.59375 
Q 21.875 64.59375 17.53125 59.8125 
Q 13.1875 55.03125 13.1875 47.40625 
Q 13.1875 40.578125 17.3125 36.296875 
Q 21.4375 32.03125 27.484375 32.03125 
Q 33.59375 32.03125 37.515625 36.296875 
Q 41.453125 40.578125 41.453125 48.140625 
z
" id="ArialMT-57"/>
      </defs>
      <g style="fill:#262626;" transform="translate(552.169062 1104.930142)scale(0.1 -0.1)">
       <use xlink:href="#ArialMT-57"/>
      </g>
     </g>
    </g>
    <g id="ytick_47">
     <g id="line2d_97">
      <path clip-path="url(#p9d20f2ab71)" d="M 564.73 1049.333835 
L 1067.04 1049.333835 
" style="fill:none;stroke:#ffffff;stroke-linecap:round;"/>
     </g>
     <g id="text_64">
      <!-- 10 -->
      <g style="fill:#262626;" transform="translate(546.608125 1052.912741)scale(0.1 -0.1)">
       <use xlink:href="#ArialMT-49"/>
       <use x="55.615234" xlink:href="#ArialMT-48"/>
      </g>
     </g>
    </g>
   </g>
   <g id="patch_38">
    <path clip-path="url(#p9d20f2ab71)" d="M 589.8455 1257.403437 
L 790.7695 1257.403437 
L 790.7695 1101.351236 
L 589.8455 1101.351236 
L 589.8455 1257.403437 
z
" style="fill:#657897;stroke:#4c4c4c;stroke-linejoin:miter;stroke-width:3;"/>
   </g>
   <g id="patch_39">
    <path clip-path="url(#p9d20f2ab71)" d="M 841.0005 1257.403437 
L 1041.9245 1257.403437 
L 1041.9245 1205.386037 
L 841.0005 1205.386037 
L 841.0005 1257.403437 
z
" style="fill:#6a9373;stroke:#4c4c4c;stroke-linejoin:miter;stroke-width:3;"/>
   </g>
   <g id="line2d_98">
    <path clip-path="url(#p9d20f2ab71)" d="M 690.3075 1257.403437 
L 690.3075 1465.47304 
" style="fill:none;stroke:#4c4c4c;stroke-linecap:round;stroke-width:3;"/>
   </g>
   <g id="line2d_99">
    <path clip-path="url(#p9d20f2ab71)" d="M 690.3075 1101.351236 
L 690.3075 1049.333835 
" style="fill:none;stroke:#4c4c4c;stroke-linecap:round;stroke-width:3;"/>
   </g>
   <g id="line2d_100">
    <path clip-path="url(#p9d20f2ab71)" d="M 640.0765 1465.47304 
L 740.5385 1465.47304 
" style="fill:none;stroke:#4c4c4c;stroke-linecap:round;stroke-width:3;"/>
   </g>
   <g id="line2d_101">
    <path clip-path="url(#p9d20f2ab71)" d="M 640.0765 1049.333835 
L 740.5385 1049.333835 
" style="fill:none;stroke:#4c4c4c;stroke-linecap:round;stroke-width:3;"/>
   </g>
   <g id="line2d_102">
    <path clip-path="url(#p9d20f2ab71)" d="M 941.4625 1257.403437 
L 941.4625 1309.420838 
" style="fill:none;stroke:#4c4c4c;stroke-linecap:round;stroke-width:3;"/>
   </g>
   <g id="line2d_103">
    <path clip-path="url(#p9d20f2ab71)" d="M 941.4625 1205.386037 
L 941.4625 1153.368636 
" style="fill:none;stroke:#4c4c4c;stroke-linecap:round;stroke-width:3;"/>
   </g>
   <g id="line2d_104">
    <path clip-path="url(#p9d20f2ab71)" d="M 891.2315 1309.420838 
L 991.6935 1309.420838 
" style="fill:none;stroke:#4c4c4c;stroke-linecap:round;stroke-width:3;"/>
   </g>
   <g id="line2d_105">
    <path clip-path="url(#p9d20f2ab71)" d="M 891.2315 1153.368636 
L 991.6935 1153.368636 
" style="fill:none;stroke:#4c4c4c;stroke-linecap:round;stroke-width:3;"/>
   </g>
   <g id="line2d_106">
    <path clip-path="url(#p9d20f2ab71)" d="M 589.8455 1101.351236 
L 790.7695 1101.351236 
" style="fill:none;stroke:#4c4c4c;stroke-linecap:round;stroke-width:3;"/>
   </g>
   <g id="line2d_107">
    <path clip-path="url(#p9d20f2ab71)" d="M 841.0005 1205.386037 
L 1041.9245 1205.386037 
" style="fill:none;stroke:#4c4c4c;stroke-linecap:round;stroke-width:3;"/>
   </g>
   <g id="patch_40">
    <path d="M 564.73 1486.28 
L 564.73 1028.526875 
" style="fill:none;"/>
   </g>
   <g id="patch_41">
    <path d="M 1067.04 1486.28 
L 1067.04 1028.526875 
" style="fill:none;"/>
   </g>
   <g id="patch_42">
    <path d="M 564.73 1486.28 
L 1067.04 1486.28 
" style="fill:none;"/>
   </g>
   <g id="patch_43">
    <path d="M 564.73 1028.526875 
L 1067.04 1028.526875 
" style="fill:none;"/>
   </g>
   <g id="text_65">
    <!-- thal_slope for each target -->
    <g style="fill:#262626;" transform="translate(748.179688 1022.526875)scale(0.12 -0.12)">
     <use xlink:href="#ArialMT-116"/>
     <use x="27.783203" xlink:href="#ArialMT-104"/>
     <use x="83.398438" xlink:href="#ArialMT-97"/>
     <use x="139.013672" xlink:href="#ArialMT-108"/>
     <use x="161.230469" xlink:href="#ArialMT-95"/>
     <use x="216.845703" xlink:href="#ArialMT-115"/>
     <use x="266.845703" xlink:href="#ArialMT-108"/>
     <use x="289.0625" xlink:href="#ArialMT-111"/>
     <use x="344.677734" xlink:href="#ArialMT-112"/>
     <use x="400.292969" xlink:href="#ArialMT-101"/>
     <use x="455.908203" xlink:href="#ArialMT-32"/>
     <use x="483.691406" xlink:href="#ArialMT-102"/>
     <use x="511.474609" xlink:href="#ArialMT-111"/>
     <use x="567.089844" xlink:href="#ArialMT-114"/>
     <use x="600.390625" xlink:href="#ArialMT-32"/>
     <use x="628.173828" xlink:href="#ArialMT-101"/>
     <use x="683.789062" xlink:href="#ArialMT-97"/>
     <use x="739.404297" xlink:href="#ArialMT-99"/>
     <use x="789.404297" xlink:href="#ArialMT-104"/>
     <use x="845.019531" xlink:href="#ArialMT-32"/>
     <use x="872.802734" xlink:href="#ArialMT-116"/>
     <use x="900.585938" xlink:href="#ArialMT-97"/>
     <use x="956.201172" xlink:href="#ArialMT-114"/>
     <use x="989.501953" xlink:href="#ArialMT-103"/>
     <use x="1045.117188" xlink:href="#ArialMT-101"/>
     <use x="1100.732422" xlink:href="#ArialMT-116"/>
    </g>
   </g>
  </g>
  <g id="axes_7">
   <g id="patch_44">
    <path d="M 31.21 1987.04 
L 533.52 1987.04 
L 533.52 1529.286875 
L 31.21 1529.286875 
z
" style="fill:#eaeaf2;"/>
   </g>
   <g id="matplotlib.axis_13">
    <g id="xtick_13">
     <g id="text_66">
      <!-- 0 -->
      <g style="fill:#262626;" transform="translate(154.007031 2001.197813)scale(0.1 -0.1)">
       <use xlink:href="#ArialMT-48"/>
      </g>
     </g>
    </g>
    <g id="xtick_14">
     <g id="text_67">
      <!-- 1 -->
      <g style="fill:#262626;" transform="translate(405.162031 2001.197813)scale(0.1 -0.1)">
       <use xlink:href="#ArialMT-49"/>
      </g>
     </g>
    </g>
   </g>
   <g id="matplotlib.axis_14">
    <g id="ytick_48">
     <g id="line2d_108">
      <path clip-path="url(#paf22d9d5ca)" d="M 31.21 1966.23304 
L 533.52 1966.23304 
" style="fill:none;stroke:#ffffff;stroke-linecap:round;"/>
     </g>
     <g id="text_68">
      <!-- 0 -->
      <g style="fill:#262626;" transform="translate(18.649062 1969.811946)scale(0.1 -0.1)">
       <use xlink:href="#ArialMT-48"/>
      </g>
     </g>
    </g>
    <g id="ytick_49">
     <g id="line2d_109">
      <path clip-path="url(#paf22d9d5ca)" d="M 31.21 1883.005199 
L 533.52 1883.005199 
" style="fill:none;stroke:#ffffff;stroke-linecap:round;"/>
     </g>
     <g id="text_69">
      <!-- 1 -->
      <g style="fill:#262626;" transform="translate(18.649062 1886.584105)scale(0.1 -0.1)">
       <use xlink:href="#ArialMT-49"/>
      </g>
     </g>
    </g>
    <g id="ytick_50">
     <g id="line2d_110">
      <path clip-path="url(#paf22d9d5ca)" d="M 31.21 1799.777358 
L 533.52 1799.777358 
" style="fill:none;stroke:#ffffff;stroke-linecap:round;"/>
     </g>
     <g id="text_70">
      <!-- 2 -->
      <g style="fill:#262626;" transform="translate(18.649062 1803.356264)scale(0.1 -0.1)">
       <use xlink:href="#ArialMT-50"/>
      </g>
     </g>
    </g>
    <g id="ytick_51">
     <g id="line2d_111">
      <path clip-path="url(#paf22d9d5ca)" d="M 31.21 1716.549517 
L 533.52 1716.549517 
" style="fill:none;stroke:#ffffff;stroke-linecap:round;"/>
     </g>
     <g id="text_71">
      <!-- 3 -->
      <g style="fill:#262626;" transform="translate(18.649062 1720.128423)scale(0.1 -0.1)">
       <use xlink:href="#ArialMT-51"/>
      </g>
     </g>
    </g>
    <g id="ytick_52">
     <g id="line2d_112">
      <path clip-path="url(#paf22d9d5ca)" d="M 31.21 1633.321676 
L 533.52 1633.321676 
" style="fill:none;stroke:#ffffff;stroke-linecap:round;"/>
     </g>
     <g id="text_72">
      <!-- 4 -->
      <g style="fill:#262626;" transform="translate(18.649062 1636.900582)scale(0.1 -0.1)">
       <use xlink:href="#ArialMT-52"/>
      </g>
     </g>
    </g>
    <g id="ytick_53">
     <g id="line2d_113">
      <path clip-path="url(#paf22d9d5ca)" d="M 31.21 1550.093835 
L 533.52 1550.093835 
" style="fill:none;stroke:#ffffff;stroke-linecap:round;"/>
     </g>
     <g id="text_73">
      <!-- 5 -->
      <g style="fill:#262626;" transform="translate(18.649062 1553.672741)scale(0.1 -0.1)">
       <use xlink:href="#ArialMT-53"/>
      </g>
     </g>
    </g>
   </g>
   <g id="patch_45">
    <path clip-path="url(#paf22d9d5ca)" d="M 56.3255 1883.005199 
L 257.2495 1883.005199 
L 257.2495 1633.321676 
L 56.3255 1633.321676 
L 56.3255 1883.005199 
z
" style="fill:#657897;stroke:#4c4c4c;stroke-linejoin:miter;stroke-width:3;"/>
   </g>
   <g id="patch_46">
    <path clip-path="url(#paf22d9d5ca)" d="M 307.4805 1883.005199 
L 508.4045 1883.005199 
L 508.4045 1799.777358 
L 307.4805 1799.777358 
L 307.4805 1883.005199 
z
" style="fill:#6a9373;stroke:#4c4c4c;stroke-linejoin:miter;stroke-width:3;"/>
   </g>
   <g id="line2d_114">
    <path clip-path="url(#paf22d9d5ca)" d="M 156.7875 1883.005199 
L 156.7875 1966.23304 
" style="fill:none;stroke:#4c4c4c;stroke-linecap:round;stroke-width:3;"/>
   </g>
   <g id="line2d_115">
    <path clip-path="url(#paf22d9d5ca)" d="M 156.7875 1633.321676 
L 156.7875 1550.093835 
" style="fill:none;stroke:#4c4c4c;stroke-linecap:round;stroke-width:3;"/>
   </g>
   <g id="line2d_116">
    <path clip-path="url(#paf22d9d5ca)" d="M 106.5565 1966.23304 
L 207.0185 1966.23304 
" style="fill:none;stroke:#4c4c4c;stroke-linecap:round;stroke-width:3;"/>
   </g>
   <g id="line2d_117">
    <path clip-path="url(#paf22d9d5ca)" d="M 106.5565 1550.093835 
L 207.0185 1550.093835 
" style="fill:none;stroke:#4c4c4c;stroke-linecap:round;stroke-width:3;"/>
   </g>
   <g id="line2d_118">
    <path clip-path="url(#paf22d9d5ca)" d="M 407.9425 1883.005199 
L 407.9425 1966.23304 
" style="fill:none;stroke:#4c4c4c;stroke-linecap:round;stroke-width:3;"/>
   </g>
   <g id="line2d_119">
    <path clip-path="url(#paf22d9d5ca)" d="M 407.9425 1799.777358 
L 407.9425 1799.777358 
" style="fill:none;stroke:#4c4c4c;stroke-linecap:round;stroke-width:3;"/>
   </g>
   <g id="line2d_120">
    <path clip-path="url(#paf22d9d5ca)" d="M 357.7115 1966.23304 
L 458.1735 1966.23304 
" style="fill:none;stroke:#4c4c4c;stroke-linecap:round;stroke-width:3;"/>
   </g>
   <g id="line2d_121">
    <path clip-path="url(#paf22d9d5ca)" d="M 357.7115 1799.777358 
L 458.1735 1799.777358 
" style="fill:none;stroke:#4c4c4c;stroke-linecap:round;stroke-width:3;"/>
   </g>
   <g id="line2d_122">
    <path clip-path="url(#paf22d9d5ca)" d="M 56.3255 1674.935597 
L 257.2495 1674.935597 
" style="fill:none;stroke:#4c4c4c;stroke-linecap:round;stroke-width:3;"/>
   </g>
   <g id="line2d_123">
    <path clip-path="url(#paf22d9d5ca)" d="M 307.4805 1799.777358 
L 508.4045 1799.777358 
" style="fill:none;stroke:#4c4c4c;stroke-linecap:round;stroke-width:3;"/>
   </g>
   <g id="patch_47">
    <path d="M 31.21 1987.04 
L 31.21 1529.286875 
" style="fill:none;"/>
   </g>
   <g id="patch_48">
    <path d="M 533.52 1987.04 
L 533.52 1529.286875 
" style="fill:none;"/>
   </g>
   <g id="patch_49">
    <path d="M 31.21 1987.04 
L 533.52 1987.04 
" style="fill:none;"/>
   </g>
   <g id="patch_50">
    <path d="M 31.21 1529.286875 
L 533.52 1529.286875 
" style="fill:none;"/>
   </g>
   <g id="text_74">
    <!-- exang_slope for each target -->
    <g style="fill:#262626;" transform="translate(207.986562 1523.286875)scale(0.12 -0.12)">
     <use xlink:href="#ArialMT-101"/>
     <use x="55.615234" xlink:href="#ArialMT-120"/>
     <use x="105.615234" xlink:href="#ArialMT-97"/>
     <use x="161.230469" xlink:href="#ArialMT-110"/>
     <use x="216.845703" xlink:href="#ArialMT-103"/>
     <use x="272.460938" xlink:href="#ArialMT-95"/>
     <use x="328.076172" xlink:href="#ArialMT-115"/>
     <use x="378.076172" xlink:href="#ArialMT-108"/>
     <use x="400.292969" xlink:href="#ArialMT-111"/>
     <use x="455.908203" xlink:href="#ArialMT-112"/>
     <use x="511.523438" xlink:href="#ArialMT-101"/>
     <use x="567.138672" xlink:href="#ArialMT-32"/>
     <use x="594.921875" xlink:href="#ArialMT-102"/>
     <use x="622.705078" xlink:href="#ArialMT-111"/>
     <use x="678.320312" xlink:href="#ArialMT-114"/>
     <use x="711.621094" xlink:href="#ArialMT-32"/>
     <use x="739.404297" xlink:href="#ArialMT-101"/>
     <use x="795.019531" xlink:href="#ArialMT-97"/>
     <use x="850.634766" xlink:href="#ArialMT-99"/>
     <use x="900.634766" xlink:href="#ArialMT-104"/>
     <use x="956.25" xlink:href="#ArialMT-32"/>
     <use x="984.033203" xlink:href="#ArialMT-116"/>
     <use x="1011.816406" xlink:href="#ArialMT-97"/>
     <use x="1067.431641" xlink:href="#ArialMT-114"/>
     <use x="1100.732422" xlink:href="#ArialMT-103"/>
     <use x="1156.347656" xlink:href="#ArialMT-101"/>
     <use x="1211.962891" xlink:href="#ArialMT-116"/>
    </g>
   </g>
  </g>
  <g id="text_75">
   <!-- Box Plots without Outliers shown -->
   <defs>
    <path d="M 7.328125 0 
L 7.328125 71.578125 
L 34.1875 71.578125 
Q 42.390625 71.578125 47.34375 69.40625 
Q 52.296875 67.234375 55.09375 62.71875 
Q 57.90625 58.203125 57.90625 53.265625 
Q 57.90625 48.6875 55.421875 44.625 
Q 52.9375 40.578125 47.90625 38.09375 
Q 54.390625 36.1875 57.875 31.59375 
Q 61.375 27 61.375 20.75 
Q 61.375 15.71875 59.25 11.390625 
Q 57.125 7.078125 54 4.734375 
Q 50.875 2.390625 46.15625 1.1875 
Q 41.453125 0 34.625 0 
z
M 16.796875 41.5 
L 32.28125 41.5 
Q 38.578125 41.5 41.3125 42.328125 
Q 44.921875 43.40625 46.75 45.890625 
Q 48.578125 48.390625 48.578125 52.15625 
Q 48.578125 55.71875 46.875 58.421875 
Q 45.171875 61.140625 41.984375 62.140625 
Q 38.8125 63.140625 31.109375 63.140625 
L 16.796875 63.140625 
z
M 16.796875 8.453125 
L 34.625 8.453125 
Q 39.203125 8.453125 41.0625 8.796875 
Q 44.34375 9.375 46.53125 10.734375 
Q 48.734375 12.109375 50.140625 14.71875 
Q 51.5625 17.328125 51.5625 20.75 
Q 51.5625 24.75 49.515625 27.703125 
Q 47.46875 30.671875 43.828125 31.859375 
Q 40.1875 33.0625 33.34375 33.0625 
L 16.796875 33.0625 
z
" id="ArialMT-66"/>
    <path d="M 7.71875 0 
L 7.71875 71.578125 
L 34.71875 71.578125 
Q 41.84375 71.578125 45.609375 70.90625 
Q 50.875 70.015625 54.4375 67.546875 
Q 58.015625 65.09375 60.1875 60.640625 
Q 62.359375 56.203125 62.359375 50.875 
Q 62.359375 41.75 56.546875 35.421875 
Q 50.734375 29.109375 35.546875 29.109375 
L 17.1875 29.109375 
L 17.1875 0 
z
M 17.1875 37.546875 
L 35.6875 37.546875 
Q 44.875 37.546875 48.734375 40.96875 
Q 52.59375 44.390625 52.59375 50.59375 
Q 52.59375 55.078125 50.3125 58.265625 
Q 48.046875 61.46875 44.34375 62.5 
Q 41.9375 63.140625 35.5 63.140625 
L 17.1875 63.140625 
z
" id="ArialMT-80"/>
    <path d="M 16.15625 0 
L 0.296875 51.859375 
L 9.375 51.859375 
L 17.625 21.921875 
L 20.703125 10.796875 
Q 20.90625 11.625 23.390625 21.484375 
L 31.640625 51.859375 
L 40.671875 51.859375 
L 48.4375 21.78125 
L 51.03125 11.859375 
L 54 21.875 
L 62.890625 51.859375 
L 71.4375 51.859375 
L 55.21875 0 
L 46.09375 0 
L 37.84375 31.0625 
L 35.84375 39.890625 
L 25.34375 0 
z
" id="ArialMT-119"/>
    <path d="M 6.640625 61.46875 
L 6.640625 71.578125 
L 15.4375 71.578125 
L 15.4375 61.46875 
z
M 6.640625 0 
L 6.640625 51.859375 
L 15.4375 51.859375 
L 15.4375 0 
z
" id="ArialMT-105"/>
    <path d="M 40.578125 0 
L 40.578125 7.625 
Q 34.515625 -1.171875 24.125 -1.171875 
Q 19.53125 -1.171875 15.546875 0.578125 
Q 11.578125 2.34375 9.640625 5 
Q 7.71875 7.671875 6.9375 11.53125 
Q 6.390625 14.109375 6.390625 19.734375 
L 6.390625 51.859375 
L 15.1875 51.859375 
L 15.1875 23.09375 
Q 15.1875 16.21875 15.71875 13.8125 
Q 16.546875 10.359375 19.234375 8.375 
Q 21.921875 6.390625 25.875 6.390625 
Q 29.828125 6.390625 33.296875 8.421875 
Q 36.765625 10.453125 38.203125 13.9375 
Q 39.65625 17.4375 39.65625 24.078125 
L 39.65625 51.859375 
L 48.4375 51.859375 
L 48.4375 0 
z
" id="ArialMT-117"/>
    <path d="M 4.828125 34.859375 
Q 4.828125 52.6875 14.390625 62.765625 
Q 23.96875 72.859375 39.109375 72.859375 
Q 49.03125 72.859375 56.984375 68.109375 
Q 64.9375 63.375 69.109375 54.90625 
Q 73.296875 46.4375 73.296875 35.6875 
Q 73.296875 24.8125 68.890625 16.21875 
Q 64.5 7.625 56.4375 3.203125 
Q 48.390625 -1.21875 39.0625 -1.21875 
Q 28.953125 -1.21875 20.984375 3.65625 
Q 13.03125 8.546875 8.921875 16.984375 
Q 4.828125 25.4375 4.828125 34.859375 
z
M 14.59375 34.71875 
Q 14.59375 21.78125 21.546875 14.328125 
Q 28.515625 6.890625 39.015625 6.890625 
Q 49.703125 6.890625 56.609375 14.40625 
Q 63.53125 21.921875 63.53125 35.75 
Q 63.53125 44.484375 60.578125 51 
Q 57.625 57.515625 51.921875 61.109375 
Q 46.234375 64.703125 39.15625 64.703125 
Q 29.109375 64.703125 21.84375 57.78125 
Q 14.59375 50.875 14.59375 34.71875 
z
" id="ArialMT-79"/>
   </defs>
   <g style="fill:#262626;" transform="translate(430.789453 51.056719)scale(0.15 -0.15)">
    <use xlink:href="#ArialMT-66"/>
    <use x="66.699219" xlink:href="#ArialMT-111"/>
    <use x="122.314453" xlink:href="#ArialMT-120"/>
    <use x="172.314453" xlink:href="#ArialMT-32"/>
    <use x="200.097656" xlink:href="#ArialMT-80"/>
    <use x="266.796875" xlink:href="#ArialMT-108"/>
    <use x="289.013672" xlink:href="#ArialMT-111"/>
    <use x="344.628906" xlink:href="#ArialMT-116"/>
    <use x="372.412109" xlink:href="#ArialMT-115"/>
    <use x="422.412109" xlink:href="#ArialMT-32"/>
    <use x="450.195312" xlink:href="#ArialMT-119"/>
    <use x="522.412109" xlink:href="#ArialMT-105"/>
    <use x="544.628906" xlink:href="#ArialMT-116"/>
    <use x="572.412109" xlink:href="#ArialMT-104"/>
    <use x="628.027344" xlink:href="#ArialMT-111"/>
    <use x="683.642578" xlink:href="#ArialMT-117"/>
    <use x="739.257812" xlink:href="#ArialMT-116"/>
    <use x="767.041016" xlink:href="#ArialMT-32"/>
    <use x="794.824219" xlink:href="#ArialMT-79"/>
    <use x="872.607422" xlink:href="#ArialMT-117"/>
    <use x="928.222656" xlink:href="#ArialMT-116"/>
    <use x="956.005859" xlink:href="#ArialMT-108"/>
    <use x="978.222656" xlink:href="#ArialMT-105"/>
    <use x="1000.439453" xlink:href="#ArialMT-101"/>
    <use x="1056.054688" xlink:href="#ArialMT-114"/>
    <use x="1089.355469" xlink:href="#ArialMT-115"/>
    <use x="1139.355469" xlink:href="#ArialMT-32"/>
    <use x="1167.138672" xlink:href="#ArialMT-115"/>
    <use x="1217.138672" xlink:href="#ArialMT-104"/>
    <use x="1272.753906" xlink:href="#ArialMT-111"/>
    <use x="1328.369141" xlink:href="#ArialMT-119"/>
    <use x="1400.585938" xlink:href="#ArialMT-110"/>
   </g>
  </g>
 </g>
 <defs>
  <clipPath id="p8ad9d9e6c0">
   <rect height="457.753125" width="502.31" x="31.21" y="27.006875"/>
  </clipPath>
  <clipPath id="ped6fe3b12a">
   <rect height="457.753125" width="502.31" x="564.73" y="27.006875"/>
  </clipPath>
  <clipPath id="p5133d20809">
   <rect height="457.753125" width="502.31" x="31.21" y="527.766875"/>
  </clipPath>
  <clipPath id="p8c55def8a7">
   <rect height="457.753125" width="502.31" x="564.73" y="527.766875"/>
  </clipPath>
  <clipPath id="p2d2e5257e5">
   <rect height="457.753125" width="502.31" x="31.21" y="1028.526875"/>
  </clipPath>
  <clipPath id="p9d20f2ab71">
   <rect height="457.753125" width="502.31" x="564.73" y="1028.526875"/>
  </clipPath>
  <clipPath id="paf22d9d5ca">
   <rect height="457.753125" width="502.31" x="31.21" y="1529.286875"/>
  </clipPath>
 </defs>
</svg>
